<svg id="Layer_1" data-name="Layer 1" xmlns="http://www.w3.org/2000/svg" viewBox="0 0 1065.31 925.4"><path d="M132.63,863.81h.46c2.81,0,4.45,2.1,4.45,4.91V994.94a4.45,4.45,0,1,1-8.9,0V868.25A4.21,4.21,0,0,1,132.63,863.81Z" transform="translate(-7.34 -77.3)" fill="#10112b"/><path d="M12.49,870.36H95.16c2.81,0,4.45,2.81,4.45,4.92a4.44,4.44,0,0,1-4.45,4.45H16.94v52.69H87.66a4.45,4.45,0,0,1,0,8.9h-70v54.33a5.72,5.72,0,0,1-5.39,4.91,4.8,4.8,0,0,1-4.92-4.91V875.51h.47A4.67,4.67,0,0,1,12,870.39l.49,0Z" transform="translate(-7.34 -77.3)" fill="#10112b"/><path d="M252.52,909.47a4.45,4.45,0,0,0-8.9,0v52.69a31.6,31.6,0,0,1-32.78,31.61c-19.2,0-30.21-12.41-30.21-32.08V909.47a4.3,4.3,0,0,0-4.45-4.45,4.78,4.78,0,0,0-4.45,4.45v53.86c0,22.25,14.29,38.64,37.7,38.64,14.29.47,27.87-7,34.43-19.67v13.58a4.45,4.45,0,1,0,8.9,0h-.47V909.47Z" transform="translate(-7.34 -77.3)" fill="#10112b"/><path d="M335.65,910.17c0,2.11-2.1,3.75-4.45,3.75H301v60.42c0,13.58,7.72,18.5,19.2,18.5a33.79,33.79,0,0,0,11-1.64,3.7,3.7,0,0,1,3.75,3.74,4,4,0,0,1-2.81,3.75,40,40,0,0,1-13.58,2.11c-14.29,0-26.23-8.2-26.23-25.53V913.92H282a4.78,4.78,0,0,1-4.45-4.45c0-2.11,2.11-3.75,4.45-3.75h10.3v-26c0-2.11,1.64-4.45,3.75-4.45h.47a4.79,4.79,0,0,1,4.45,4.45v26h30.2a4.6,4.6,0,0,1,4.45,4.45Z" transform="translate(-7.34 -77.3)" fill="#10112b"/><path d="M405.91,913.92c2.1,0,4.45-1.64,4.45-3.75a4.78,4.78,0,0,0-4.45-4.45H375.7v-26a4.78,4.78,0,0,0-4.45-4.45h-.47c-2.11,0-3.75,2.11-3.75,4.45v26h-10.3c-2.11,0-4.45,1.64-4.45,3.75a4.78,4.78,0,0,0,4.45,4.45H367v61.35c0,17.33,12,25.53,26.23,25.53a38.3,38.3,0,0,0,13.58-2.11,4,4,0,0,0,2.81-3.75,3.7,3.7,0,0,0-3.74-3.74,33,33,0,0,1-11,1.64c-11.47,0-19.2-4.92-19.2-18.5V913.92Z" transform="translate(-7.34 -77.3)" fill="#10112b"/><path d="M551.09,932.89c6.09-15.69,20.84-27.17,37.71-28.34,2.81,0,4.91,2.11,4.91,5.39,0,2.11-1.64,4.92-4.45,4.92h-.46c-20.38,2.1-37.71,16.86-37.71,47.3v34.89c-.46,2.81-2.1,4.45-4.91,4.45a4.78,4.78,0,0,1-4.45-4.45V909.94c.46-2.81,2.1-4.45,4.91-4.45a4.78,4.78,0,0,1,4.45,4.45Z" transform="translate(-7.34 -77.3)" fill="#10112b"/><path d="M738.2,899.63a14,14,0,0,0-13.58,10.78L708.69,961l-15.92-50.58A15.32,15.32,0,0,0,678,898.93h-1.64a14.82,14.82,0,0,0-14.76,11.48L645.7,960.52l-15.22-50.58a14.27,14.27,0,0,0-13.58-10.77h-.47c-7,0-12.65,6.08-12.65,13.11a21.6,21.6,0,0,0,1.17,6.56l24.59,70.25a16.3,16.3,0,0,0,15.22,12.41h1.17c7,0,13.12-4.92,15.23-11.94l15.92-50.12L693,989.56a15.76,15.76,0,0,0,15.22,11.94h1.17c7.73,0,14.29-4.92,15.93-12.41l24.59-70.72a22.16,22.16,0,0,0,1.17-5.39v-.47c-.24-7.26-5.62-12.88-12.88-12.88Z" transform="translate(-7.34 -77.3)" fill="#10112b"/><path d="M938.18,909a13.62,13.62,0,0,1,26.7,3.28v.47a13.56,13.56,0,0,1-1.64,6.55l-29.51,70.26a19.07,19.07,0,0,1-16.39,11.94H915.7a17.61,17.61,0,0,1-15.92-12.41L869.1,918.84A13.28,13.28,0,0,1,881,899.17a14.12,14.12,0,0,1,13.59,10.3l21.31,57.14Z" transform="translate(-7.34 -77.3)" fill="#10112b"/><path d="M515.5,952.56c0-27.64-16.86-49.41-43.79-49.41-25.76,0-45,21.77-45,49.41v.7c0,29.74,21.31,49.41,46.6,49.41a47.46,47.46,0,0,0,36.76-15.22,4.44,4.44,0,0,0,1.64-3.28,4.78,4.78,0,0,0-4.45-4.45,4.47,4.47,0,0,0-2.81,1.17A42.84,42.84,0,0,1,473.82,994c-18.5,0-35.6-13.59-37.24-37h74.47A4.79,4.79,0,0,0,515.5,952.56Zm-79.62-4.45c1.64-20.61,16.39-36.53,35.13-36.53,21.31,0,32.78,17.33,33.95,36.53Z" transform="translate(-7.34 -77.3)" fill="#10112b"/><path d="M842.87,911.11c-8.19-7-19.2-11.48-34.42-11.48-11-.46-21.54,1.64-31.85,4.92h0a10.24,10.24,0,0,0-6.55,10.77,12.4,12.4,0,0,0,15.69,10.31c6.55-2.34,13.11-2.81,19.67-2.81,14.28,0,21.31,6.09,21.31,18v1.64a76.3,76.3,0,0,0-24.12-3.75c-23.66,0-40.05,10.3-40.05,32.08,0,19.67,15.93,30.45,34,30.45a38.65,38.65,0,0,0,30.21-12.42c.46,7,6.55,11.95,13.58,11.95a13.45,13.45,0,0,0,13.58-13.59V942.72A44.71,44.71,0,0,0,842.87,911.11ZM827,964.5c0,10.77-9.37,17.33-22.48,16.86-8.67,0-15.22-4.45-15.22-11.94V969c0-8.2,7.73-13.58,19.67-13.58a51.82,51.82,0,0,1,18,3.74Z" transform="translate(-7.34 -77.3)" fill="#10112b"/><path d="M1072.6,945.53v-2.11c0-24.58-21.31-45.19-47.54-44.49-29,0-49.41,23.42-49.41,51.75v4h.47a49.2,49.2,0,0,0,52,46.84c12.65,0,24.59-3.75,34.43-11.94,2.81-2.11,3.74-4.92,3.74-8.2v-.47a10.79,10.79,0,0,0-11-10.77c-2.11,0-4.92.47-6.56,2.11-6.09,4.45-13.11,7-20.37,6.55-11.94.47-22.48-7.72-24.12-19.67h56.43C1067.68,958.65,1073.3,952.56,1072.6,945.53ZM1004,942.72c2.11-13.11,9.84-21.31,21.31-21.31s19.21,8.67,20.85,21.31Z" transform="translate(-7.34 -77.3)" fill="#10112b"/><path d="M909.14,633.11C877,543.35,801.68,464.07,728.3,407.72c106.8-82.56,327.61-376.1-17-324.34C560.56,105,340.4,240,295.19,394.61a1157.08,1157.08,0,0,0-76.66-119.9c-41.28-53.08-88.45-12.45-42.59,42.59,130.39,157.25,220.81,346,220.81,536,11.14-94.35-5.89-209.67-45.86-322.37a226.17,226.17,0,0,0,61.59,9.17C483.24,646.87,590,738,711.26,780.54,822,821.82,968.76,797.58,909.14,633.11ZM743.37,121.38c191.32-19.65-13.76,200.5-81.25,241.78-62.9-38-140.88-71.42-217.54-62.25C499.62,235.39,633.29,133.83,743.37,121.38Zm-300.75,228c52.42-4.59,108.77,22.93,152,50.45a360.37,360.37,0,0,1-135,34.73C389.54,435.24,375.13,356,442.62,349.4ZM708,694.05C617.56,669.81,533.69,603,472.1,534.17c50.46-9.17,99.6-27.51,145.46-53.07,17-7.21,34.08-18.34,49.15-28.83,53.72,45.87,108.76,106.15,130.39,175C818.06,701.91,760.4,707.81,708,694.05Z" transform="translate(-7.34 -77.3)" fill="#eba12a"/></svg>