<svg id="Layer_1" data-name="Layer 1" xmlns="http://www.w3.org/2000/svg" viewBox="0 0 956.44 832.31"><polygon points="468.74 20.72 296.31 145.5 296.31 832.17 636.47 832.17 636.47 145.5 468.74 20.72" fill="#f9a63a"/><rect x="636.47" y="145.5" width="166.8" height="686.67" fill="#db7709"/><polygon points="296.31 145.5 266.43 142.5 466.39 0 669.02 147.97 636.47 148.96 467.73 24.1 296.31 145.5" fill="#2f7d33"/><polygon points="471.22 1.67 653.78 8.11 820.68 144.06 669.5 146.46 471.22 1.67" fill="#398e3d"/><path d="M476.05,3.34,653.23,9.59l163.32,133L670,145,476.05,3.34M466.39,0,669,148l155.8-2.47L654.34,6.63,466.39,0Z" transform="translate(0)" fill="#2f7d33"/><path d="M364,163.82c-17.95,0-32.5,15.89-32.5,35.49v80.23h65V199.31C396.53,179.71,382,163.82,364,163.82Z" transform="translate(0)" fill="#fff"/><path d="M364.79,163.82a29.69,29.69,0,0,0-3.4.2V279.54h5.27V163.89C366,163.85,365.42,163.82,364.79,163.82Z" transform="translate(0)" fill="#398e3d"/><rect x="331.52" y="199.3" width="65.02" height="4.8" fill="#398e3d"/><path d="M458.5,163.82c-18,0-32.51,15.89-32.51,35.49v80.23h65V199.31C491,179.71,476.45,163.82,458.5,163.82Z" transform="translate(0)" fill="#fff"/><path d="M459.26,163.82a29.65,29.65,0,0,0-3.39.2V279.54h5.26V163.89C460.51,163.85,459.89,163.82,459.26,163.82Z" transform="translate(0)" fill="#398e3d"/><rect x="425.99" y="199.3" width="65.02" height="4.8" fill="#398e3d"/><path d="M553,163.82c-18,0-32.51,15.89-32.51,35.49v80.23h65V199.31C585.48,179.71,570.93,163.82,553,163.82Z" transform="translate(0)" fill="#fff"/><path d="M553.73,163.82a29.65,29.65,0,0,0-3.39.2V279.54h5.26V163.89C555,163.85,554.36,163.82,553.73,163.82Z" transform="translate(0)" fill="#398e3d"/><rect x="520.46" y="199.3" width="65.02" height="4.8" fill="#398e3d"/><path d="M371.92,361c-18,0-32.51,15.89-32.51,35.49V476.7h65V396.47C404.43,376.87,389.87,361,371.92,361Z" transform="translate(0)" fill="#fff"/><path d="M372.68,361a32.13,32.13,0,0,0-3.4.19V476.7h5.27V361.09A14.55,14.55,0,0,0,372.68,361Z" transform="translate(0)" fill="#398e3d"/><rect x="339.41" y="396.46" width="65.02" height="4.8" fill="#398e3d"/><path d="M466.39,361c-17.95,0-32.51,15.89-32.51,35.49V476.7h65V396.47C498.9,376.87,484.34,361,466.39,361Z" transform="translate(0)" fill="#fff"/><path d="M467.15,361a32.1,32.1,0,0,0-3.39.19V476.7H469V361.09A14.29,14.29,0,0,0,467.15,361Z" transform="translate(0)" fill="#398e3d"/><rect x="433.88" y="396.46" width="65.02" height="4.8" fill="#398e3d"/><path d="M560.86,361c-18,0-32.51,15.89-32.51,35.49V476.7h65V396.47C593.37,376.87,578.82,361,560.86,361Z" transform="translate(0)" fill="#fff"/><path d="M561.63,361a32.13,32.13,0,0,0-3.4.19V476.7h5.27V361.09A14.66,14.66,0,0,0,561.63,361Z" transform="translate(0)" fill="#398e3d"/><rect x="528.36" y="396.46" width="65.02" height="4.8" fill="#398e3d"/><path d="M373.25,574.48c-17.95,0-32.51,15.89-32.51,35.49V690.2h65V610C405.76,590.37,391.21,574.48,373.25,574.48Z" transform="translate(0)" fill="#fff"/><path d="M374,574.48a29.69,29.69,0,0,0-3.4.2V690.2h5.27V574.55C375.27,574.51,374.64,574.48,374,574.48Z" transform="translate(0)" fill="#398e3d"/><rect x="340.75" y="609.96" width="65.02" height="4.8" fill="#398e3d"/><path d="M467.73,574.48c-18,0-32.51,15.89-32.51,35.49V690.2h65V610C500.24,590.37,485.68,574.48,467.73,574.48Z" transform="translate(0)" fill="#fff"/><path d="M468.49,574.48a29.69,29.69,0,0,0-3.4.2V690.2h5.27V574.55C469.74,574.51,469.12,574.48,468.49,574.48Z" transform="translate(0)" fill="#398e3d"/><rect x="435.22" y="609.96" width="65.02" height="4.8" fill="#398e3d"/><path d="M562.2,574.48c-18,0-32.51,15.89-32.51,35.49V690.2h65V610C594.71,590.37,580.15,574.48,562.2,574.48Z" transform="translate(0)" fill="#fff"/><path d="M563,574.48a29.65,29.65,0,0,0-3.39.2V690.2h5.26V574.55C564.21,574.51,563.59,574.48,563,574.48Z" transform="translate(0)" fill="#398e3d"/><rect x="529.69" y="609.96" width="65.02" height="4.8" fill="#398e3d"/><path d="M497.67,31.3c3.65,3.47,9,5,13.77,6.08a71.56,71.56,0,0,0,20,1.8c4.66-.25,10.5-1,13.87-4.58,3.51-3.76,1-8.66-1.66-12-1.49-1.89-4.38.53-3.25,2.51,8.05,14.18,54,22.33,44.39-3.25L581,23.42c6.8,13.59,47.89,24.42,43.56.06l-3.78,1.6c5.88,12.63,42.38,20.63,36.1-.77l-3.78,1.6c2.57,3.87,6.52,6.49,11.27,5a6.28,6.28,0,0,0,4.25-7.81c0-.15-.09-.29-.14-.43-1-2.44-5-1.38-4,1.11.7,1.75-.2,2.8-1.9,3.35-2.53.81-4.68-1.44-5.92-3.29s-4.47-.75-3.78,1.59c2.37,8.1-5.08,9-11.37,8S627.25,29.09,624.4,23c-1.06-2.28-4.17-.56-3.78,1.59,3.19,18-31.28,6.17-36-3.25-1-2.08-4.62-.61-3.79,1.6,1.27,3.4,2.2,7.61-1.33,10s-8.29,1.92-12.14,1.51c-7.68-.83-19.24-4.16-23.35-11.4l-3.26,2.51c2,2.58,3.38,5.47.06,7.43-3.7,2.18-8.81,2.2-13,2.21a69.55,69.55,0,0,1-16-1.93c-3.8-.89-8.32-2.07-11.23-4.84-1.93-1.84-4.87,1.09-2.93,2.93Z" transform="translate(0)" fill="#2f7d33"/><path d="M557.34,70.25c6.56,5.32,14.44,10.37,23.21,10.23,9.21-.15,14.35-8.16,16.71-16.12l-3,1.24A77.41,77.41,0,0,0,613.73,76c5.69,2.17,12,3.86,18.16,3,10-1.44,20.34-8.89,13.27-19.5-1.23-1.85-4.67-.7-3.79,1.6,4.25,11,15.91,14.6,26.82,12.68,8-1.42,17.21-8.78,9-16.36-1.71-1.56-4.5.44-3.26,2.52,4.61,7.69,14.44,11,23.06,10,8.43-1,13.66-7.41,10.56-15.76-.92-2.49-4.92-1.41-4,1.1,2.56,6.91-2.17,10.37-8.74,10.7s-13.87-2.41-17.31-8.16l-3.25,2.51c5.93,5.45-3.2,8.73-7.81,9.55-8.26,1.46-17.84-1.59-21-9.9l-3.79,1.59c6.27,9.42-6.54,13.76-14.09,13.51-10.82-.35-22.69-6.62-31.14-13a2,2,0,0,0-3,1.24c-2,6.76-5.8,13-13.53,13.09-7.15.11-14.17-4.74-19.47-9-2.06-1.67-5,1.25-2.93,2.93Z" transform="translate(0)" fill="#2f7d33"/><path d="M609.63,118.85c13.74,5.09,60.08,6.12,44.61-19.62l-3.58,2.09c6.28,8.34,19.45,11,29.3,10.86,4.15-.08,9-.89,11.95-4.05,3.34-3.52,1.77-8.54-.38-12.22a2.08,2.08,0,0,0-3.79,1.6c2.43,9.52,14.11,13.23,22.86,13,4-.1,8.46-1.22,11.09-4.41,3.14-3.8,1.79-8.75-.33-12.67-1.09-2-4.68-.6-3.78,1.6,4,9.85,15.8,14.09,25.69,14.82,6.16.45,24.91-4.75,15.89-13.53-1.92-1.86-4.85,1.07-2.93,2.93,3.16,3.08-3.64,5-5.84,5.67a23.17,23.17,0,0,1-10.57.38c-6.76-1.12-15.46-4.55-18.25-11.38l-3.79,1.6c1.41,2.61,2.68,5.92.34,8.37-2.13,2.24-6,2.5-8.85,2.5-6.49,0-15.73-2.89-17.53-10L688,98c1.49,2.54,3,6,0,8.07s-7.4,2.06-10.89,1.92c-7.34-.28-18.15-2.5-22.87-8.77-1.57-2.07-5-.26-3.58,2.09,2.15,3.58,4.16,8.17.78,11.62-3.15,3.21-8.76,4-13,4.43-8.85,1-19.27.61-27.72-2.52-2.51-.93-3.58,3.08-1.1,4Z" transform="translate(0)" fill="#2f7d33"/><path d="M705.9,792.7c0,10.63,5.05,19.24,11.29,19.24s11.29-8.61,11.29-19.24-5.05-19.25-11.29-19.25S705.9,782.09,705.9,792.7Z" transform="translate(0)" fill="#181e2a"/><path d="M767.31,811.6H853c18.44,0,33.38-14.4,33.38-32.16v-342c0-17.76-14.94-32.16-33.38-32.16H737.44c-18.44,0-33.38,14.4-33.38,32.16V765.81C704.06,789.51,748.87,811.6,767.31,811.6Z" transform="translate(0)" fill="#398e3d"/><path d="M760.33,405.29a32.88,32.88,0,0,0-12.58,2A33.56,33.56,0,0,0,726,437.42l-.51,25.46-.38,25.43L725,501l-.11,12.72-.22,25.43L724.52,590l.17,50.86.22,25.43.1,12.77.18,12.71c.45,33.91,1.11,67.82,2.39,101.73,1.27-33.91,1.94-67.82,2.39-101.73l.18-12.71.12-12.72.22-25.43.16-50.86-.15-50.86-.22-25.43-.11-12.72L730,488.31l-.37-25.43-.48-25.4a31.28,31.28,0,0,1,2.23-11.9A32.21,32.21,0,0,1,738,415.3,32.79,32.79,0,0,1,760.33,405.29Z" transform="translate(0)" fill="#2f7d33"/><ellipse cx="797.2" cy="811.16" rx="11.29" ry="19.25" fill="#181e2a"/><ellipse cx="917.23" cy="811.16" rx="11.29" ry="19.25" fill="#181e2a"/><rect x="829.55" y="290.74" width="7.96" height="116.04" fill="#cdd9fc"/><rect x="765.86" y="288.58" width="7.96" height="116.71" fill="#cdd9fc"/><path d="M842.58,296.81h-18.1v-6.48H778.89v6.48H761.52s-5.07-17.27,8-17.27h65.09C844.75,279.54,842.58,296.81,842.58,296.81Z" transform="translate(0)" fill="#181e2a"/><path d="M806.84,405.29h95.93A53.67,53.67,0,0,1,956.44,459V778.84a32.76,32.76,0,0,1-32.76,32.76H806.84a32.78,32.78,0,0,1-32.77-32.76v-330c0-24.62-23-43.51-23-43.51Z" transform="translate(0)" fill="#4a994a"/><path d="M802.9,660.81H935.61a7,7,0,0,0,6.92-6.93h0a7,7,0,0,0-6.92-6.92H802.9a7,7,0,0,0-6.93,6.92h0A7,7,0,0,0,802.9,660.81Z" transform="translate(0)" fill="#2f7d33"/><path d="M802.9,470.53H935.61a7,7,0,0,0,6.92-6.92h0a7,7,0,0,0-6.92-6.93H802.9a7,7,0,0,0-6.93,6.93h0A7,7,0,0,0,802.9,470.53Z" transform="translate(0)" fill="#2f7d33"/><path d="M802.9,497.37H935.61a6.94,6.94,0,0,0,6.92-6.92h0a6.94,6.94,0,0,0-6.92-6.92H802.9a6.94,6.94,0,0,0-6.93,6.92h0A6.94,6.94,0,0,0,802.9,497.37Z" transform="translate(0)" fill="#2f7d33"/><path d="M802.9,688.57H935.61a7,7,0,0,0,6.92-6.93h0a6.94,6.94,0,0,0-6.92-6.92H802.9a6.94,6.94,0,0,0-6.93,6.92h0A7,7,0,0,0,802.9,688.57Z" transform="translate(0)" fill="#2f7d33"/><path d="M802.9,716.32H935.61a6.94,6.94,0,0,0,6.92-6.92h0a7,7,0,0,0-6.92-6.93H802.9A7,7,0,0,0,796,709.4h0A6.94,6.94,0,0,0,802.9,716.32Z" transform="translate(0)" fill="#2f7d33"/><path d="M802.9,744.09H935.61a7,7,0,0,0,6.92-6.92h0a7,7,0,0,0-6.92-6.93H802.9a7,7,0,0,0-6.93,6.93h0A7,7,0,0,0,802.9,744.09Z" transform="translate(0)" fill="#2f7d33"/><path d="M802.9,771.84H935.61a7,7,0,0,0,6.92-6.93h0a6.94,6.94,0,0,0-6.92-6.92H802.9a6.94,6.94,0,0,0-6.93,6.92h0A7,7,0,0,0,802.9,771.84Z" transform="translate(0)" fill="#2f7d33"/><path d="M19.28,787.62H656.94c4.41,0,24.55-12,24.55-22.66V712.71c0-4.72-7.87-12.9-7.87-16.68V621.75c0-2.83-68-81.51-70.82-82.14s-107-8.19-192.61-6.93-118.35,10.7-139.75,18.89S147.38,622.7,142,623.33s-49.41,8.81-67.67,13.21S18.66,652.6,11.42,666.09s-7.64,59.09-7.64,75.14.39,24.16-1.65,27.46-3.54,7.48,0,11.61S12.48,787.62,19.28,787.62Z" transform="translate(0)" fill="#398e3d"/><path d="M6.44,686.27c-2.47,18.94-2.66,44-2.66,55,0,16.05.39,24.16-1.65,27.46s-3.54,7.48,0,11.61,10.35,7.28,17.15,7.28H656.94c4.41,0,24.55-12,24.55-22.66V712.71c0-4.72-7.87-12.9-7.87-16.68v-9.76Z" transform="translate(0)" fill="#54a354"/><path d="M164.69,771.88A71.76,71.76,0,1,0,23,787.62H162.9A71.21,71.21,0,0,0,164.69,771.88Z" transform="translate(0)" fill="#2f7d33"/><path d="M674.56,771.88a71.76,71.76,0,1,0-141.73,15.74H656.94c2.67,0,11.13-4.42,17.38-10.27C674.46,775.54,674.56,773.72,674.56,771.88Z" transform="translate(0)" fill="#2f7d33"/><circle cx="92.93" cy="771.88" r="60.43" fill="#404040"/><circle cx="92.93" cy="771.87" r="35" fill="#494949"/><circle cx="602.81" cy="771.88" r="60.43" fill="#404040"/><circle cx="602.8" cy="771.88" r="35" fill="#494949"/><path d="M376.17,622.6c4.37-.15,7.42-3.37,7.89-7.73s9-48.36,10.23-56.07,1.09-10.65-2-10.59c-67.38,2.11-96.73,9.93-116.44,17.47-10.49,4-47,25.33-75.53,42-8.2,4.81-8.87,20.24,5.3,20.24,8.13,0,94.44-2.7,170.56-5.37Z" transform="translate(0)" fill="#cdd9fc"/><path d="M537.19,550.53c-31.17-1.52-69.89-2.88-107-2.88h-3.6c-2.52.12-4,4.24-4,8.77s-2.48,51.93-2.6,56.07,2.12,8.43,6,8.29c34.18-1.28,60.37-2.39,66.69-3,21.48-1.92,29.74-6.8,45.63-16.24s28.49-17.94,28.8-23.61S551,551.18,537.19,550.53Z" transform="translate(0)" fill="#cdd9fc"/><path d="M397.47,776.33H507.13c9.15,0,14.54-3.77,16-11.19l.37-1.9c1.7-8.88,4.86-25.41,17.69-41.12,6-7.39,13.21-12.07,19.54-16.19,8.55-5.58,15.94-10.39,18.87-20,1.17-3.85,3.09-9.55,5.31-16.15,7.61-22.59,18-53.54,16.92-63.39-1.51-13.35-38.8-61.22-55.42-63.62-15.43-2.22-95-4.06-133.56-3.63.35-2.54.65-4.72.9-6.49h-1.91c-.25,1.79-.55,4-.9,6.5-2.53,0-4.85.08-6.95.13-52.85,1.42-92.81,6.47-118.76,15-33.39,11-67.61,31.86-78,39-1,.7-2.12,1.42-3.26,2.17-11,7.28-26.13,17.25-31.76,44.52-5.56,27-3.92,77.93,1.26,105.49,5.25,27.89,9.93,29,13.46,29.78,1.7.39,1.59,5.53,1.47,11v1.42h1.89v-1.38c.09-4.25.17-7.66-.45-9.91H395.55a89.08,89.08,0,0,1,1.29,11.29h1.89A89.85,89.85,0,0,0,397.47,776.33ZM189,774.44a3,3,0,0,0-1.72-1.07c-2.74-.63-6.9-1.58-11.91-28.26-5.15-27.38-6.79-78-1.27-104.76,5.47-26.5,20.2-36.22,31-43.32l3.29-2.19c10.3-7.09,44.32-27.86,77.5-38.76,25.78-8.47,65.56-13.48,118.23-14.9,2,0,4.23-.09,6.62-.13-3.08,22.3-9,66.73-11.76,95.8-3.92,41.82-9.2,107.52-8.58,115.28a76.3,76.3,0,0,0,2.17,10.47c.87,3.52,1.86,7.55,2.69,11.84Zm205.35-12.3A78.33,78.33,0,0,1,392.24,752c-.61-7.66,4.67-73.2,8.58-115,2.73-29.16,8.73-73.82,11.79-96,38.37-.45,118.15,1.38,133.57,3.6,15.57,2.25,52.38,49.32,53.8,62,1.06,9.44-9.7,41.42-16.83,62.58-2.22,6.61-4.14,12.32-5.33,16.2-2.73,9-9.85,13.6-18.1,19-6.44,4.19-13.74,9-20,16.58-13.13,16.08-16.48,33.56-18.09,42l-.36,1.88c-1.3,6.51-5.94,9.67-14.18,9.67h-110C396.29,770,395.26,765.79,394.36,762.14Z" transform="translate(0)" fill="#2f7d33"/><path d="M22.69,661.41a18,18,0,0,0,7,1.81,11.79,11.79,0,0,0,1.32-.13c4.84-.6,32.31-6.18,56.54-11.09,13.6-2.76,26.45-5.37,33.22-6.67,14.31-2.76,23.07-17.22,26.67-24.59q-1.74.93-3,1.53c-4.06,7.43-12.09,18.9-24.06,21.2-6.78,1.31-19.63,3.92-33.23,6.68C63,655.09,35.59,660.66,30.81,661.26c-2.66.33-4.87-.56-7.41-1.6a34.93,34.93,0,0,0-4.2-1.49c-.69.49-1.33,1-1.95,1.49A26.76,26.76,0,0,1,22.69,661.41Z" transform="translate(0)" fill="#2f7d33"/><path d="M371.32,654.7v-5.38A3.33,3.33,0,0,0,368,646h-26.3a3.33,3.33,0,0,0-3.33,3.33h0v5.38Z" transform="translate(0)" fill="#54a354"/><path d="M338.38,654.7v5.39a3.34,3.34,0,0,0,3.33,3.33H368a3.33,3.33,0,0,0,3.33-3.33h0v-5.38Z" transform="translate(0)" fill="#2f7d33"/><path d="M567.09,654.7v-5.38a3.34,3.34,0,0,0-3.33-3.33H537.48a3.33,3.33,0,0,0-3.33,3.33h0v5.38Z" transform="translate(0)" fill="#54a354"/><path d="M534.15,654.7v5.39a3.34,3.34,0,0,0,3.33,3.33h26.28a3.33,3.33,0,0,0,3.33-3.33h0v-5.38Z" transform="translate(0)" fill="#2f7d33"/><path d="M18.54,669.51c-2.72.3-7,2.78-9.9,4.61-2.83,11.46-4,29.23-4.51,44.39A19.54,19.54,0,0,0,13,714c6.37-5.67,15.22-31.51,15.22-36.59S22.9,669.09,18.54,669.51Z" transform="translate(0)" fill="#f9a63a"/><path d="M673.62,629.62h-7.24A11.33,11.33,0,0,0,655,640.91v28h18.57Z" transform="translate(0)" fill="#f9a63a"/><path d="M666.38,694.77h7.24V669H655v14.48a11.33,11.33,0,0,0,11.33,11.33Z" transform="translate(0)" fill="#fcc781"/><path d="M608.34,548.19a11.34,11.34,0,0,0-1.26,16h0l41.45,48.74a11.34,11.34,0,0,0,16,1.27h0l2.13-1.83c-13.45-16.64-42.92-50.74-56.64-65.57Z" transform="translate(0)" fill="#cdd9fc"/></svg>