<svg xmlns="http://www.w3.org/2000/svg" viewBox="0 0 1061.51 912.7"><g style="isolation:isolate"><g id="Layer_1" data-name="Layer 1"><path d="M1049.53,696.86H597.36c-11.72,0-21.22-11-21.22-24.51V409.81c0-13.53,9.5-24.51,21.22-24.51h452.17c11.72,0,21.22,11,21.22,24.51V672.35C1070.75,685.89,1061.25,696.86,1049.53,696.86Z" transform="translate(-9.25 -83.65)" fill="#2f7d33"/><line x1="613.79" y1="355.04" x2="712.89" y2="355.04" fill="none" stroke="#398e3d" stroke-linecap="round" stroke-miterlimit="10" stroke-width="18.12"/><line x1="612.94" y1="520.01" x2="683.18" y2="520.01" fill="none" stroke="#398e3d" stroke-linecap="round" stroke-miterlimit="10" stroke-width="16.53"/><line x1="723.55" y1="520.01" x2="793.79" y2="520.01" fill="none" stroke="#398e3d" stroke-linecap="round" stroke-miterlimit="10" stroke-width="16.53"/><line x1="834.16" y1="520.01" x2="904.41" y2="520.01" fill="none" stroke="#398e3d" stroke-linecap="round" stroke-miterlimit="10" stroke-width="16.53"/><line x1="944.78" y1="520.01" x2="1015.02" y2="520.01" fill="none" stroke="#398e3d" stroke-linecap="round" stroke-miterlimit="10" stroke-width="16.53"/><line x1="613.79" y1="565.82" x2="786.33" y2="565.82" fill="none" stroke="#398e3d" stroke-linecap="round" stroke-miterlimit="10" stroke-width="16.06"/><line x1="825.26" y1="565.82" x2="893.39" y2="565.82" fill="none" stroke="#398e3d" stroke-linecap="round" stroke-miterlimit="10" stroke-width="16.06"/><line x1="975.68" y1="565.82" x2="1014.61" y2="565.82" fill="none" stroke="#398e3d" stroke-linecap="round" stroke-miterlimit="10" stroke-width="16.06"/><path d="M722.19,558.34h-101c-4.85,0-8.78-4.54-8.78-10.15v-48c0-5.6,3.93-10.14,8.78-10.14h101c4.86,0,8.79,4.54,8.79,10.14v48C731,553.8,727.05,558.34,722.19,558.34Z" transform="translate(-9.25 -83.65)" fill="#fff" opacity="0.3"/><circle cx="999.08" cy="451.29" r="33.62" transform="translate(105.34 1015.33) rotate(-60.52)" fill="#fff" opacity="0.3"/><rect y="595.97" width="708.74" height="314.5" rx="20.43" fill="#2f7d33"/><rect x="228.51" y="504.65" width="270.21" height="664.44" transform="translate(1191.24 389.6) rotate(90)" fill="#fff" opacity="0.3"/><path d="M100.05,679.62a90.82,90.82,0,0,1-90.8,90.81V715.49a35.87,35.87,0,0,1,35.87-35.87Z" transform="translate(-9.25 -83.65)" fill="#2f7d33"/><path d="M100.05,994.12H45.12A35.87,35.87,0,0,1,9.25,958.25V903.31A90.82,90.82,0,0,1,100.05,994.12Z" transform="translate(-9.25 -83.65)" fill="#2f7d33"/><path d="M718,715.49v54.94a90.82,90.82,0,0,1-90.81-90.81h54.94A35.87,35.87,0,0,1,718,715.49Z" transform="translate(-9.25 -83.65)" fill="#999"/><path d="M718,903.31v54.94a35.87,35.87,0,0,1-35.87,35.87H627.18A90.82,90.82,0,0,1,718,903.31Z" transform="translate(-9.25 -83.65)" fill="#999"/><circle cx="141.75" cy="753.22" r="38.39" fill="#2f7d33"/><circle cx="554.44" cy="753.22" r="38.39" fill="#999"/><rect x="178.8" width="281.37" height="529.24" rx="4.47" fill="#f9a63a"/><path d="M430.86,132.38H226.61a7.12,7.12,0,0,1-7.12-7.12h0a7.11,7.11,0,0,1,7.12-7.11H430.86a7.11,7.11,0,0,1,7.11,7.11h0A7.11,7.11,0,0,1,430.86,132.38Z" transform="translate(-9.25 -83.65)" fill="#fcc781"/><path d="M430.86,155.85H226.61a7.12,7.12,0,0,1-7.12-7.12h0a7.12,7.12,0,0,1,7.12-7.12H430.86a7.11,7.11,0,0,1,7.11,7.12h0A7.11,7.11,0,0,1,430.86,155.85Z" transform="translate(-9.25 -83.65)" fill="#fcc781"/><path d="M317.14,179.32H226.61a7.12,7.12,0,0,1-7.12-7.12h0a7.12,7.12,0,0,1,7.12-7.12h90.53a7.11,7.11,0,0,1,7.11,7.12h0A7.11,7.11,0,0,1,317.14,179.32Z" transform="translate(-9.25 -83.65)" fill="#fcc781"/><path d="M430.86,220.29H226.61a7.12,7.12,0,0,1-7.12-7.12h0a7.12,7.12,0,0,1,7.12-7.12H430.86a7.11,7.11,0,0,1,7.11,7.12h0A7.11,7.11,0,0,1,430.86,220.29Z" transform="translate(-9.25 -83.65)" fill="#fcc781"/><path d="M430.86,243.76H226.61a7.12,7.12,0,0,1-7.12-7.12h0a7.12,7.12,0,0,1,7.12-7.12H430.86a7.11,7.11,0,0,1,7.11,7.12h0A7.11,7.11,0,0,1,430.86,243.76Z" transform="translate(-9.25 -83.65)" fill="#fcc781"/><path d="M317.14,267.22H226.61a7.11,7.11,0,0,1-7.12-7.11h0a7.12,7.12,0,0,1,7.12-7.12h90.53a7.11,7.11,0,0,1,7.11,7.12h0A7.11,7.11,0,0,1,317.14,267.22Z" transform="translate(-9.25 -83.65)" fill="#fcc781"/><path d="M430.86,308.19H226.61a7.12,7.12,0,0,1-7.12-7.12h0a7.11,7.11,0,0,1,7.12-7.11H430.86a7.11,7.11,0,0,1,7.11,7.11h0A7.11,7.11,0,0,1,430.86,308.19Z" transform="translate(-9.25 -83.65)" fill="#fcc781"/><path d="M430.86,331.66H226.61a7.12,7.12,0,0,1-7.12-7.12h0a7.12,7.12,0,0,1,7.12-7.12H430.86a7.11,7.11,0,0,1,7.11,7.12h0A7.11,7.11,0,0,1,430.86,331.66Z" transform="translate(-9.25 -83.65)" fill="#fcc781"/><path d="M317.14,355.13H226.61a7.12,7.12,0,0,1-7.12-7.12h0a7.12,7.12,0,0,1,7.12-7.12h90.53a7.11,7.11,0,0,1,7.11,7.12h0A7.11,7.11,0,0,1,317.14,355.13Z" transform="translate(-9.25 -83.65)" fill="#fcc781"/><path d="M430.86,396.1H226.61a7.12,7.12,0,0,1-7.12-7.12h0a7.12,7.12,0,0,1,7.12-7.12H430.86A7.11,7.11,0,0,1,438,389h0A7.11,7.11,0,0,1,430.86,396.1Z" transform="translate(-9.25 -83.65)" fill="#fcc781"/><path d="M430.86,419.57H226.61a7.12,7.12,0,0,1-7.12-7.12h0a7.12,7.12,0,0,1,7.12-7.12H430.86a7.11,7.11,0,0,1,7.11,7.12h0A7.11,7.11,0,0,1,430.86,419.57Z" transform="translate(-9.25 -83.65)" fill="#fcc781"/><path d="M317.14,443H226.61a7.11,7.11,0,0,1-7.12-7.11h0a7.12,7.12,0,0,1,7.12-7.12h90.53a7.11,7.11,0,0,1,7.11,7.12h0A7.11,7.11,0,0,1,317.14,443Z" transform="translate(-9.25 -83.65)" fill="#fcc781"/><path d="M430.86,484H226.61a7.12,7.12,0,0,1-7.12-7.12h0a7.11,7.11,0,0,1,7.12-7.11H430.86a7.11,7.11,0,0,1,7.11,7.11h0A7.11,7.11,0,0,1,430.86,484Z" transform="translate(-9.25 -83.65)" fill="#fcc781"/><path d="M430.86,507.47H226.61a7.12,7.12,0,0,1-7.12-7.12h0a7.12,7.12,0,0,1,7.12-7.12H430.86a7.11,7.11,0,0,1,7.11,7.12h0A7.11,7.11,0,0,1,430.86,507.47Z" transform="translate(-9.25 -83.65)" fill="#fcc781"/><path d="M317.14,530.94H226.61a7.12,7.12,0,0,1-7.12-7.12h0a7.12,7.12,0,0,1,7.12-7.12h90.53a7.11,7.11,0,0,1,7.11,7.12h0A7.11,7.11,0,0,1,317.14,530.94Z" transform="translate(-9.25 -83.65)" fill="#fcc781"/><path d="M688.35,871.06H895.83a1.22,1.22,0,0,1,1.22,1.22v38.88a1.22,1.22,0,0,1-1.22,1.22H688.35a1.21,1.21,0,0,1-1.21-1.21V872.28A1.21,1.21,0,0,1,688.35,871.06Z" fill="#f89516"/><path d="M901.76,992.67h0a2.09,2.09,0,0,0,2.09-2.09V961.27a2.1,2.1,0,0,0-2.09-2.09h0a2.1,2.1,0,0,0-2.1,2.09v29.31A2.09,2.09,0,0,0,901.76,992.67Z" transform="translate(-9.25 -83.65)" fill="#fab65d"/><path d="M894.08,992.67h0a2.08,2.08,0,0,0,2.09-2.09V961.27a2.09,2.09,0,0,0-2.09-2.09h0a2.09,2.09,0,0,0-2.09,2.09v29.31A2.08,2.08,0,0,0,894.08,992.67Z" transform="translate(-9.25 -83.65)" fill="#fab65d"/><path d="M886.4,992.67h0a2.09,2.09,0,0,0,2.1-2.09V961.27a2.1,2.1,0,0,0-2.1-2.09h0a2.1,2.1,0,0,0-2.09,2.09v29.31A2.09,2.09,0,0,0,886.4,992.67Z" transform="translate(-9.25 -83.65)" fill="#fdd7a4"/><path d="M878.73,992.67h0a2.09,2.09,0,0,0,2.09-2.09V961.27a2.1,2.1,0,0,0-2.09-2.09h0a2.1,2.1,0,0,0-2.1,2.09v29.31A2.09,2.09,0,0,0,878.73,992.67Z" transform="translate(-9.25 -83.65)" fill="#fab65d"/><path d="M871.05,992.67h0a2.08,2.08,0,0,0,2.09-2.09V961.27a2.09,2.09,0,0,0-2.09-2.09h0a2.1,2.1,0,0,0-2.09,2.09v29.31A2.09,2.09,0,0,0,871.05,992.67Z" transform="translate(-9.25 -83.65)" fill="#fab65d"/><path d="M863.38,992.67h0a2.09,2.09,0,0,0,2.09-2.09V961.27a2.1,2.1,0,0,0-2.09-2.09h0a2.1,2.1,0,0,0-2.1,2.09v29.31A2.09,2.09,0,0,0,863.38,992.67Z" transform="translate(-9.25 -83.65)" fill="#fab65d"/><path d="M855.7,992.67h0a2.08,2.08,0,0,0,2.09-2.09V961.27a2.09,2.09,0,0,0-2.09-2.09h0a2.09,2.09,0,0,0-2.09,2.09v29.31A2.08,2.08,0,0,0,855.7,992.67Z" transform="translate(-9.25 -83.65)" fill="#fab65d"/><path d="M848,992.67h0a2.09,2.09,0,0,0,2.1-2.09V961.27a2.1,2.1,0,0,0-2.1-2.09h0a2.1,2.1,0,0,0-2.09,2.09v29.31A2.09,2.09,0,0,0,848,992.67Z" transform="translate(-9.25 -83.65)" fill="#fab65d"/><path d="M840.35,992.67h0a2.09,2.09,0,0,0,2.09-2.09V961.27a2.1,2.1,0,0,0-2.09-2.09h0a2.1,2.1,0,0,0-2.1,2.09v29.31A2.09,2.09,0,0,0,840.35,992.67Z" transform="translate(-9.25 -83.65)" fill="#fab65d"/><path d="M832.67,992.67h0a2.08,2.08,0,0,0,2.09-2.09V961.27a2.09,2.09,0,0,0-2.09-2.09h0a2.09,2.09,0,0,0-2.09,2.09v29.31A2.08,2.08,0,0,0,832.67,992.67Z" transform="translate(-9.25 -83.65)" fill="#fab65d"/><path d="M825,992.67h0a2.09,2.09,0,0,0,2.1-2.09V961.27a2.1,2.1,0,0,0-2.1-2.09h0a2.1,2.1,0,0,0-2.09,2.09v29.31A2.09,2.09,0,0,0,825,992.67Z" transform="translate(-9.25 -83.65)" fill="#fab65d"/><path d="M817.32,992.67h0a2.09,2.09,0,0,0,2.09-2.09V961.27a2.1,2.1,0,0,0-2.09-2.09h0a2.1,2.1,0,0,0-2.1,2.09v29.31A2.09,2.09,0,0,0,817.32,992.67Z" transform="translate(-9.25 -83.65)" fill="#fab65d"/><path d="M809.64,992.67h0a2.09,2.09,0,0,0,2.1-2.09V961.27a2.1,2.1,0,0,0-2.1-2.09h0a2.1,2.1,0,0,0-2.09,2.09v29.31A2.09,2.09,0,0,0,809.64,992.67Z" transform="translate(-9.25 -83.65)" fill="#fab65d"/><path d="M802,992.67h0a2.09,2.09,0,0,0,2.09-2.09V961.27a2.1,2.1,0,0,0-2.09-2.09h0a2.1,2.1,0,0,0-2.1,2.09v29.31A2.09,2.09,0,0,0,802,992.67Z" transform="translate(-9.25 -83.65)" fill="#fab65d"/><path d="M794.29,992.67h0a2.08,2.08,0,0,0,2.09-2.09V961.27a2.09,2.09,0,0,0-2.09-2.09h0a2.09,2.09,0,0,0-2.09,2.09v29.31A2.08,2.08,0,0,0,794.29,992.67Z" transform="translate(-9.25 -83.65)" fill="#db7709"/><path d="M786.61,992.67h0a2.09,2.09,0,0,0,2.1-2.09V961.27a2.1,2.1,0,0,0-2.1-2.09h0a2.1,2.1,0,0,0-2.09,2.09v29.31A2.09,2.09,0,0,0,786.61,992.67Z" transform="translate(-9.25 -83.65)" fill="#db7709"/><path d="M778.94,992.67h0a2.09,2.09,0,0,0,2.09-2.09V961.27a2.1,2.1,0,0,0-2.09-2.09h0a2.1,2.1,0,0,0-2.1,2.09v29.31A2.09,2.09,0,0,0,778.94,992.67Z" transform="translate(-9.25 -83.65)" fill="#db7709"/><path d="M771.26,992.67h0a2.09,2.09,0,0,0,2.1-2.09V961.27a2.1,2.1,0,0,0-2.1-2.09h0a2.1,2.1,0,0,0-2.09,2.09v29.31A2.09,2.09,0,0,0,771.26,992.67Z" transform="translate(-9.25 -83.65)" fill="#fab65d"/><path d="M763.59,992.67h0a2.09,2.09,0,0,0,2.09-2.09V961.27a2.1,2.1,0,0,0-2.09-2.09h0a2.1,2.1,0,0,0-2.1,2.09v29.31A2.09,2.09,0,0,0,763.59,992.67Z" transform="translate(-9.25 -83.65)" fill="#fab65d"/><path d="M755.91,992.67h0a2.08,2.08,0,0,0,2.09-2.09V961.27a2.09,2.09,0,0,0-2.09-2.09h0a2.09,2.09,0,0,0-2.09,2.09v29.31A2.08,2.08,0,0,0,755.91,992.67Z" transform="translate(-9.25 -83.65)" fill="#fab65d"/><path d="M748.23,992.67h0a2.09,2.09,0,0,0,2.1-2.09V961.27a2.1,2.1,0,0,0-2.1-2.09h0a2.1,2.1,0,0,0-2.09,2.09v29.31A2.09,2.09,0,0,0,748.23,992.67Z" transform="translate(-9.25 -83.65)" fill="#fab65d"/><path d="M740.56,992.67h0a2.09,2.09,0,0,0,2.09-2.09V961.27a2.1,2.1,0,0,0-2.09-2.09h0a2.1,2.1,0,0,0-2.1,2.09v29.31A2.09,2.09,0,0,0,740.56,992.67Z" transform="translate(-9.25 -83.65)" fill="#fab65d"/><path d="M732.88,992.67h0a2.08,2.08,0,0,0,2.09-2.09V961.27a2.09,2.09,0,0,0-2.09-2.09h0a2.09,2.09,0,0,0-2.09,2.09v29.31A2.08,2.08,0,0,0,732.88,992.67Z" transform="translate(-9.25 -83.65)" fill="#fab65d"/><path d="M725.2,992.67h0a2.09,2.09,0,0,0,2.1-2.09V961.27a2.1,2.1,0,0,0-2.1-2.09h0a2.1,2.1,0,0,0-2.09,2.09v29.31A2.09,2.09,0,0,0,725.2,992.67Z" transform="translate(-9.25 -83.65)" fill="#fab65d"/><path d="M717.53,992.67h0a2.09,2.09,0,0,0,2.09-2.09V961.27a2.1,2.1,0,0,0-2.09-2.09h0a2.1,2.1,0,0,0-2.1,2.09v29.31A2.09,2.09,0,0,0,717.53,992.67Z" transform="translate(-9.25 -83.65)" fill="#fab65d"/><path d="M709.85,992.67h0a2.09,2.09,0,0,0,2.1-2.09V961.27a2.1,2.1,0,0,0-2.1-2.09h0a2.1,2.1,0,0,0-2.09,2.09v29.31A2.09,2.09,0,0,0,709.85,992.67Z" transform="translate(-9.25 -83.65)" fill="#fab65d"/><path d="M702.18,992.67h0a2.09,2.09,0,0,0,2.09-2.09V961.27a2.1,2.1,0,0,0-2.09-2.09h0a2.1,2.1,0,0,0-2.1,2.09v29.31A2.09,2.09,0,0,0,702.18,992.67Z" transform="translate(-9.25 -83.65)" fill="#fab65d"/><path d="M694.5,992.67h0a2.08,2.08,0,0,0,2.09-2.09V961.27a2.09,2.09,0,0,0-2.09-2.09h0a2.09,2.09,0,0,0-2.09,2.09v29.31A2.08,2.08,0,0,0,694.5,992.67Z" transform="translate(-9.25 -83.65)" fill="#fab65d"/><path d="M727.26,829.75H934.74A1.21,1.21,0,0,1,936,831v38.88a1.22,1.22,0,0,1-1.22,1.22H727.26a1.21,1.21,0,0,1-1.21-1.21V831A1.21,1.21,0,0,1,727.26,829.75Z" fill="#f9a63a"/><path d="M940.66,951.36h0a2.08,2.08,0,0,0,2.09-2.09V920a2.08,2.08,0,0,0-2.09-2.09h0a2.08,2.08,0,0,0-2.09,2.09v29.31A2.08,2.08,0,0,0,940.66,951.36Z" transform="translate(-9.25 -83.65)" fill="#fab65d"/><path d="M933,951.36h0a2.09,2.09,0,0,0,2.1-2.09V920a2.09,2.09,0,0,0-2.1-2.09h0a2.09,2.09,0,0,0-2.09,2.09v29.31A2.09,2.09,0,0,0,933,951.36Z" transform="translate(-9.25 -83.65)" fill="#fab65d"/><path d="M925.31,951.36h0a2.09,2.09,0,0,0,2.09-2.09V920a2.09,2.09,0,0,0-2.09-2.09h0a2.09,2.09,0,0,0-2.1,2.09v29.31A2.09,2.09,0,0,0,925.31,951.36Z" transform="translate(-9.25 -83.65)" fill="#fdd7a4"/><path d="M917.63,951.36h0a2.09,2.09,0,0,0,2.1-2.09V920a2.09,2.09,0,0,0-2.1-2.09h0a2.09,2.09,0,0,0-2.09,2.09v29.31A2.09,2.09,0,0,0,917.63,951.36Z" transform="translate(-9.25 -83.65)" fill="#fab65d"/><path d="M910,951.36h0a2.09,2.09,0,0,0,2.09-2.09V920a2.09,2.09,0,0,0-2.09-2.09h0a2.09,2.09,0,0,0-2.1,2.09v29.31A2.09,2.09,0,0,0,910,951.36Z" transform="translate(-9.25 -83.65)" fill="#fab65d"/><path d="M902.28,951.36h0a2.08,2.08,0,0,0,2.09-2.09V920a2.08,2.08,0,0,0-2.09-2.09h0a2.08,2.08,0,0,0-2.09,2.09v29.31A2.08,2.08,0,0,0,902.28,951.36Z" transform="translate(-9.25 -83.65)" fill="#fab65d"/><path d="M894.6,951.36h0a2.09,2.09,0,0,0,2.1-2.09V920a2.09,2.09,0,0,0-2.1-2.09h0a2.09,2.09,0,0,0-2.09,2.09v29.31A2.09,2.09,0,0,0,894.6,951.36Z" transform="translate(-9.25 -83.65)" fill="#fab65d"/><path d="M886.93,951.36h0a2.09,2.09,0,0,0,2.09-2.09V920a2.09,2.09,0,0,0-2.09-2.09h0a2.09,2.09,0,0,0-2.1,2.09v29.31A2.09,2.09,0,0,0,886.93,951.36Z" transform="translate(-9.25 -83.65)" fill="#fab65d"/><path d="M879.25,951.36h0a2.08,2.08,0,0,0,2.09-2.09V920a2.08,2.08,0,0,0-2.09-2.09h0a2.08,2.08,0,0,0-2.09,2.09v29.31A2.08,2.08,0,0,0,879.25,951.36Z" transform="translate(-9.25 -83.65)" fill="#fab65d"/><path d="M871.57,951.36h0a2.09,2.09,0,0,0,2.1-2.09V920a2.09,2.09,0,0,0-2.1-2.09h0a2.09,2.09,0,0,0-2.09,2.09v29.31A2.09,2.09,0,0,0,871.57,951.36Z" transform="translate(-9.25 -83.65)" fill="#fab65d"/><path d="M863.9,951.36h0a2.09,2.09,0,0,0,2.09-2.09V920a2.09,2.09,0,0,0-2.09-2.09h0a2.08,2.08,0,0,0-2.09,2.09v29.31A2.08,2.08,0,0,0,863.9,951.36Z" transform="translate(-9.25 -83.65)" fill="#fab65d"/><path d="M856.22,951.36h0a2.09,2.09,0,0,0,2.1-2.09V920a2.09,2.09,0,0,0-2.1-2.09h0a2.09,2.09,0,0,0-2.09,2.09v29.31A2.09,2.09,0,0,0,856.22,951.36Z" transform="translate(-9.25 -83.65)" fill="#fab65d"/><path d="M848.55,951.36h0a2.09,2.09,0,0,0,2.09-2.09V920a2.09,2.09,0,0,0-2.09-2.09h0a2.09,2.09,0,0,0-2.1,2.09v29.31A2.09,2.09,0,0,0,848.55,951.36Z" transform="translate(-9.25 -83.65)" fill="#fab65d"/><path d="M840.87,951.36h0a2.08,2.08,0,0,0,2.09-2.09V920a2.08,2.08,0,0,0-2.09-2.09h0a2.08,2.08,0,0,0-2.09,2.09v29.31A2.08,2.08,0,0,0,840.87,951.36Z" transform="translate(-9.25 -83.65)" fill="#fab65d"/><path d="M833.19,951.36h0a2.09,2.09,0,0,0,2.1-2.09V920a2.09,2.09,0,0,0-2.1-2.09h0A2.09,2.09,0,0,0,831.1,920v29.31A2.09,2.09,0,0,0,833.19,951.36Z" transform="translate(-9.25 -83.65)" fill="#db7709"/><path d="M825.52,951.36h0a2.09,2.09,0,0,0,2.09-2.09V920a2.09,2.09,0,0,0-2.09-2.09h0a2.09,2.09,0,0,0-2.1,2.09v29.31A2.09,2.09,0,0,0,825.52,951.36Z" transform="translate(-9.25 -83.65)" fill="#db7709"/><path d="M817.84,951.36h0a2.09,2.09,0,0,0,2.1-2.09V920a2.09,2.09,0,0,0-2.1-2.09h0a2.09,2.09,0,0,0-2.09,2.09v29.31A2.09,2.09,0,0,0,817.84,951.36Z" transform="translate(-9.25 -83.65)" fill="#db7709"/><path d="M810.17,951.36h0a2.09,2.09,0,0,0,2.09-2.09V920a2.09,2.09,0,0,0-2.09-2.09h0a2.09,2.09,0,0,0-2.1,2.09v29.31A2.09,2.09,0,0,0,810.17,951.36Z" transform="translate(-9.25 -83.65)" fill="#fab65d"/><path d="M802.49,951.36h0a2.08,2.08,0,0,0,2.09-2.09V920a2.08,2.08,0,0,0-2.09-2.09h0A2.08,2.08,0,0,0,800.4,920v29.31A2.08,2.08,0,0,0,802.49,951.36Z" transform="translate(-9.25 -83.65)" fill="#fab65d"/><path d="M794.81,951.36h0a2.09,2.09,0,0,0,2.1-2.09V920a2.09,2.09,0,0,0-2.1-2.09h0a2.09,2.09,0,0,0-2.09,2.09v29.31A2.09,2.09,0,0,0,794.81,951.36Z" transform="translate(-9.25 -83.65)" fill="#fab65d"/><path d="M787.14,951.36h0a2.09,2.09,0,0,0,2.09-2.09V920a2.09,2.09,0,0,0-2.09-2.09h0A2.09,2.09,0,0,0,785,920v29.31A2.09,2.09,0,0,0,787.14,951.36Z" transform="translate(-9.25 -83.65)" fill="#fab65d"/><path d="M779.46,951.36h0a2.08,2.08,0,0,0,2.09-2.09V920a2.08,2.08,0,0,0-2.09-2.09h0a2.08,2.08,0,0,0-2.09,2.09v29.31A2.08,2.08,0,0,0,779.46,951.36Z" transform="translate(-9.25 -83.65)" fill="#fab65d"/><path d="M771.78,951.36h0a2.09,2.09,0,0,0,2.1-2.09V920a2.09,2.09,0,0,0-2.1-2.09h0a2.09,2.09,0,0,0-2.09,2.09v29.31A2.09,2.09,0,0,0,771.78,951.36Z" transform="translate(-9.25 -83.65)" fill="#fab65d"/><path d="M764.11,951.36h0a2.08,2.08,0,0,0,2.09-2.09V920a2.08,2.08,0,0,0-2.09-2.09h0A2.08,2.08,0,0,0,762,920v29.31A2.08,2.08,0,0,0,764.11,951.36Z" transform="translate(-9.25 -83.65)" fill="#fab65d"/><path d="M756.43,951.36h0a2.09,2.09,0,0,0,2.1-2.09V920a2.09,2.09,0,0,0-2.1-2.09h0a2.09,2.09,0,0,0-2.09,2.09v29.31A2.09,2.09,0,0,0,756.43,951.36Z" transform="translate(-9.25 -83.65)" fill="#fab65d"/><path d="M748.76,951.36h0a2.09,2.09,0,0,0,2.09-2.09V920a2.09,2.09,0,0,0-2.09-2.09h0a2.09,2.09,0,0,0-2.1,2.09v29.31A2.09,2.09,0,0,0,748.76,951.36Z" transform="translate(-9.25 -83.65)" fill="#fab65d"/><path d="M741.08,951.36h0a2.08,2.08,0,0,0,2.09-2.09V920a2.08,2.08,0,0,0-2.09-2.09h0A2.08,2.08,0,0,0,739,920v29.31A2.08,2.08,0,0,0,741.08,951.36Z" transform="translate(-9.25 -83.65)" fill="#fab65d"/><path d="M733.4,951.36h0a2.09,2.09,0,0,0,2.1-2.09V920a2.09,2.09,0,0,0-2.1-2.09h0a2.09,2.09,0,0,0-2.09,2.09v29.31A2.09,2.09,0,0,0,733.4,951.36Z" transform="translate(-9.25 -83.65)" fill="#fab65d"/><path d="M704.75,788.44H912.23a1.22,1.22,0,0,1,1.22,1.22v38.88a1.22,1.22,0,0,1-1.22,1.22H704.75a1.21,1.21,0,0,1-1.21-1.21V789.65A1.21,1.21,0,0,1,704.75,788.44Z" fill="#f89516"/><path d="M918.16,910.05h0a2.1,2.1,0,0,0,2.09-2.09V878.65a2.09,2.09,0,0,0-2.09-2.09h0a2.09,2.09,0,0,0-2.1,2.09V908A2.1,2.1,0,0,0,918.16,910.05Z" transform="translate(-9.25 -83.65)" fill="#fab65d"/><path d="M910.48,910.05h0a2.09,2.09,0,0,0,2.09-2.09V878.65a2.08,2.08,0,0,0-2.09-2.09h0a2.08,2.08,0,0,0-2.09,2.09V908A2.09,2.09,0,0,0,910.48,910.05Z" transform="translate(-9.25 -83.65)" fill="#fab65d"/><path d="M902.8,910.05h0a2.1,2.1,0,0,0,2.1-2.09V878.65a2.09,2.09,0,0,0-2.1-2.09h0a2.09,2.09,0,0,0-2.09,2.09V908A2.1,2.1,0,0,0,902.8,910.05Z" transform="translate(-9.25 -83.65)" fill="#fdd7a4"/><path d="M895.13,910.05h0a2.1,2.1,0,0,0,2.09-2.09V878.65a2.09,2.09,0,0,0-2.09-2.09h0a2.09,2.09,0,0,0-2.1,2.09V908A2.1,2.1,0,0,0,895.13,910.05Z" transform="translate(-9.25 -83.65)" fill="#fab65d"/><path d="M887.45,910.05h0a2.09,2.09,0,0,0,2.09-2.09V878.65a2.08,2.08,0,0,0-2.09-2.09h0a2.08,2.08,0,0,0-2.09,2.09V908A2.09,2.09,0,0,0,887.45,910.05Z" transform="translate(-9.25 -83.65)" fill="#fab65d"/><path d="M879.77,910.05h0a2.1,2.1,0,0,0,2.1-2.09V878.65a2.09,2.09,0,0,0-2.1-2.09h0a2.09,2.09,0,0,0-2.09,2.09V908A2.1,2.1,0,0,0,879.77,910.05Z" transform="translate(-9.25 -83.65)" fill="#fab65d"/><path d="M872.1,910.05h0a2.1,2.1,0,0,0,2.09-2.09V878.65a2.09,2.09,0,0,0-2.09-2.09h0a2.09,2.09,0,0,0-2.1,2.09V908A2.1,2.1,0,0,0,872.1,910.05Z" transform="translate(-9.25 -83.65)" fill="#fab65d"/><path d="M864.42,910.05h0a2.1,2.1,0,0,0,2.1-2.09V878.65a2.09,2.09,0,0,0-2.1-2.09h0a2.09,2.09,0,0,0-2.09,2.09V908A2.1,2.1,0,0,0,864.42,910.05Z" transform="translate(-9.25 -83.65)" fill="#fab65d"/><path d="M856.75,910.05h0a2.1,2.1,0,0,0,2.09-2.09V878.65a2.09,2.09,0,0,0-2.09-2.09h0a2.09,2.09,0,0,0-2.1,2.09V908A2.1,2.1,0,0,0,856.75,910.05Z" transform="translate(-9.25 -83.65)" fill="#fab65d"/><path d="M849.07,910.05h0a2.09,2.09,0,0,0,2.09-2.09V878.65a2.08,2.08,0,0,0-2.09-2.09h0a2.08,2.08,0,0,0-2.09,2.09V908A2.09,2.09,0,0,0,849.07,910.05Z" transform="translate(-9.25 -83.65)" fill="#fab65d"/><path d="M841.39,910.05h0a2.1,2.1,0,0,0,2.1-2.09V878.65a2.09,2.09,0,0,0-2.1-2.09h0a2.09,2.09,0,0,0-2.09,2.09V908A2.1,2.1,0,0,0,841.39,910.05Z" transform="translate(-9.25 -83.65)" fill="#fab65d"/><path d="M833.72,910.05h0a2.1,2.1,0,0,0,2.09-2.09V878.65a2.09,2.09,0,0,0-2.09-2.09h0a2.09,2.09,0,0,0-2.1,2.09V908A2.1,2.1,0,0,0,833.72,910.05Z" transform="translate(-9.25 -83.65)" fill="#fab65d"/><path d="M826,910.05h0a2.1,2.1,0,0,0,2.1-2.09V878.65a2.09,2.09,0,0,0-2.1-2.09h0a2.09,2.09,0,0,0-2.09,2.09V908A2.1,2.1,0,0,0,826,910.05Z" transform="translate(-9.25 -83.65)" fill="#fab65d"/><path d="M818.37,910.05h0a2.1,2.1,0,0,0,2.09-2.09V878.65a2.09,2.09,0,0,0-2.09-2.09h0a2.09,2.09,0,0,0-2.1,2.09V908A2.1,2.1,0,0,0,818.37,910.05Z" transform="translate(-9.25 -83.65)" fill="#fab65d"/><path d="M810.69,910.05h0a2.09,2.09,0,0,0,2.09-2.09V878.65a2.08,2.08,0,0,0-2.09-2.09h0a2.08,2.08,0,0,0-2.09,2.09V908A2.09,2.09,0,0,0,810.69,910.05Z" transform="translate(-9.25 -83.65)" fill="#db7709"/><path d="M803,910.05h0a2.1,2.1,0,0,0,2.1-2.09V878.65a2.09,2.09,0,0,0-2.1-2.09h0a2.09,2.09,0,0,0-2.09,2.09V908A2.1,2.1,0,0,0,803,910.05Z" transform="translate(-9.25 -83.65)" fill="#db7709"/><path d="M795.34,910.05h0a2.1,2.1,0,0,0,2.09-2.09V878.65a2.09,2.09,0,0,0-2.09-2.09h0a2.09,2.09,0,0,0-2.1,2.09V908A2.1,2.1,0,0,0,795.34,910.05Z" transform="translate(-9.25 -83.65)" fill="#db7709"/><path d="M787.66,910.05h0a2.09,2.09,0,0,0,2.09-2.09V878.65a2.08,2.08,0,0,0-2.09-2.09h0a2.08,2.08,0,0,0-2.09,2.09V908A2.09,2.09,0,0,0,787.66,910.05Z" transform="translate(-9.25 -83.65)" fill="#fab65d"/><path d="M780,910.05h0a2.1,2.1,0,0,0,2.1-2.09V878.65a2.09,2.09,0,0,0-2.1-2.09h0a2.09,2.09,0,0,0-2.09,2.09V908A2.1,2.1,0,0,0,780,910.05Z" transform="translate(-9.25 -83.65)" fill="#fab65d"/><path d="M772.31,910.05h0A2.1,2.1,0,0,0,774.4,908V878.65a2.09,2.09,0,0,0-2.09-2.09h0a2.09,2.09,0,0,0-2.1,2.09V908A2.1,2.1,0,0,0,772.31,910.05Z" transform="translate(-9.25 -83.65)" fill="#fab65d"/><path d="M764.63,910.05h0a2.1,2.1,0,0,0,2.1-2.09V878.65a2.09,2.09,0,0,0-2.1-2.09h0a2.09,2.09,0,0,0-2.09,2.09V908A2.1,2.1,0,0,0,764.63,910.05Z" transform="translate(-9.25 -83.65)" fill="#fab65d"/><path d="M757,910.05h0a2.1,2.1,0,0,0,2.09-2.09V878.65a2.09,2.09,0,0,0-2.09-2.09h0a2.09,2.09,0,0,0-2.1,2.09V908A2.1,2.1,0,0,0,757,910.05Z" transform="translate(-9.25 -83.65)" fill="#fab65d"/><path d="M749.28,910.05h0a2.09,2.09,0,0,0,2.09-2.09V878.65a2.08,2.08,0,0,0-2.09-2.09h0a2.08,2.08,0,0,0-2.09,2.09V908A2.09,2.09,0,0,0,749.28,910.05Z" transform="translate(-9.25 -83.65)" fill="#fab65d"/><path d="M741.6,910.05h0a2.1,2.1,0,0,0,2.1-2.09V878.65a2.09,2.09,0,0,0-2.1-2.09h0a2.09,2.09,0,0,0-2.09,2.09V908A2.1,2.1,0,0,0,741.6,910.05Z" transform="translate(-9.25 -83.65)" fill="#fab65d"/><rect x="722.59" y="792.9" width="4.19" height="33.5" rx="0.59" fill="#fab65d"/><path d="M726.25,910.05h0a2.09,2.09,0,0,0,2.09-2.09V878.65a2.08,2.08,0,0,0-2.09-2.09h0a2.09,2.09,0,0,0-2.09,2.09V908A2.1,2.1,0,0,0,726.25,910.05Z" transform="translate(-9.25 -83.65)" fill="#fab65d"/><path d="M718.58,910.05h0a2.1,2.1,0,0,0,2.09-2.09V878.65a2.09,2.09,0,0,0-2.09-2.09h0a2.09,2.09,0,0,0-2.1,2.09V908A2.1,2.1,0,0,0,718.58,910.05Z" transform="translate(-9.25 -83.65)" fill="#fab65d"/><path d="M710.9,910.05h0A2.09,2.09,0,0,0,713,908V878.65a2.08,2.08,0,0,0-2.09-2.09h0a2.08,2.08,0,0,0-2.09,2.09V908A2.09,2.09,0,0,0,710.9,910.05Z" transform="translate(-9.25 -83.65)" fill="#fab65d"/><rect x="225.26" y="871.06" width="209.91" height="41.31" rx="1.21" fill="#f89516"/><path d="M439.88,992.67h0a2.08,2.08,0,0,0,2.09-2.09V961.27a2.09,2.09,0,0,0-2.09-2.09h0a2.09,2.09,0,0,0-2.09,2.09v29.31A2.08,2.08,0,0,0,439.88,992.67Z" transform="translate(-9.25 -83.65)" fill="#fab65d"/><path d="M432.2,992.67h0a2.09,2.09,0,0,0,2.1-2.09V961.27a2.1,2.1,0,0,0-2.1-2.09h0a2.1,2.1,0,0,0-2.09,2.09v29.31A2.09,2.09,0,0,0,432.2,992.67Z" transform="translate(-9.25 -83.65)" fill="#fab65d"/><path d="M424.53,992.67h0a2.09,2.09,0,0,0,2.09-2.09V961.27a2.1,2.1,0,0,0-2.09-2.09h0a2.1,2.1,0,0,0-2.1,2.09v29.31A2.09,2.09,0,0,0,424.53,992.67Z" transform="translate(-9.25 -83.65)" fill="#fdd7a4"/><path d="M416.85,992.67h0a2.08,2.08,0,0,0,2.09-2.09V961.27a2.09,2.09,0,0,0-2.09-2.09h0a2.1,2.1,0,0,0-2.09,2.09v29.31A2.09,2.09,0,0,0,416.85,992.67Z" transform="translate(-9.25 -83.65)" fill="#fab65d"/><path d="M409.18,992.67h0a2.09,2.09,0,0,0,2.09-2.09V961.27a2.1,2.1,0,0,0-2.09-2.09h0a2.1,2.1,0,0,0-2.1,2.09v29.31A2.09,2.09,0,0,0,409.18,992.67Z" transform="translate(-9.25 -83.65)" fill="#fab65d"/><path d="M401.5,992.67h0a2.08,2.08,0,0,0,2.09-2.09V961.27a2.09,2.09,0,0,0-2.09-2.09h0a2.09,2.09,0,0,0-2.09,2.09v29.31A2.08,2.08,0,0,0,401.5,992.67Z" transform="translate(-9.25 -83.65)" fill="#fab65d"/><path d="M393.82,992.67h0a2.09,2.09,0,0,0,2.1-2.09V961.27a2.1,2.1,0,0,0-2.1-2.09h0a2.1,2.1,0,0,0-2.09,2.09v29.31A2.09,2.09,0,0,0,393.82,992.67Z" transform="translate(-9.25 -83.65)" fill="#fab65d"/><path d="M386.15,992.67h0a2.09,2.09,0,0,0,2.09-2.09V961.27a2.1,2.1,0,0,0-2.09-2.09h0a2.1,2.1,0,0,0-2.1,2.09v29.31A2.09,2.09,0,0,0,386.15,992.67Z" transform="translate(-9.25 -83.65)" fill="#fab65d"/><path d="M378.47,992.67h0a2.08,2.08,0,0,0,2.09-2.09V961.27a2.09,2.09,0,0,0-2.09-2.09h0a2.09,2.09,0,0,0-2.09,2.09v29.31A2.08,2.08,0,0,0,378.47,992.67Z" transform="translate(-9.25 -83.65)" fill="#fab65d"/><path d="M370.79,992.67h0a2.09,2.09,0,0,0,2.1-2.09V961.27a2.1,2.1,0,0,0-2.1-2.09h0a2.1,2.1,0,0,0-2.09,2.09v29.31A2.09,2.09,0,0,0,370.79,992.67Z" transform="translate(-9.25 -83.65)" fill="#fab65d"/><path d="M363.12,992.67h0a2.09,2.09,0,0,0,2.09-2.09V961.27a2.1,2.1,0,0,0-2.09-2.09h0a2.1,2.1,0,0,0-2.1,2.09v29.31A2.09,2.09,0,0,0,363.12,992.67Z" transform="translate(-9.25 -83.65)" fill="#fab65d"/><path d="M355.44,992.67h0a2.09,2.09,0,0,0,2.1-2.09V961.27a2.1,2.1,0,0,0-2.1-2.09h0a2.1,2.1,0,0,0-2.09,2.09v29.31A2.09,2.09,0,0,0,355.44,992.67Z" transform="translate(-9.25 -83.65)" fill="#fab65d"/><path d="M347.77,992.67h0a2.09,2.09,0,0,0,2.09-2.09V961.27a2.1,2.1,0,0,0-2.09-2.09h0a2.1,2.1,0,0,0-2.1,2.09v29.31A2.09,2.09,0,0,0,347.77,992.67Z" transform="translate(-9.25 -83.65)" fill="#fab65d"/><path d="M340.09,992.67h0a2.08,2.08,0,0,0,2.09-2.09V961.27a2.09,2.09,0,0,0-2.09-2.09h0a2.09,2.09,0,0,0-2.09,2.09v29.31A2.08,2.08,0,0,0,340.09,992.67Z" transform="translate(-9.25 -83.65)" fill="#fab65d"/><path d="M332.41,992.67h0a2.09,2.09,0,0,0,2.1-2.09V961.27a2.1,2.1,0,0,0-2.1-2.09h0a2.1,2.1,0,0,0-2.09,2.09v29.31A2.09,2.09,0,0,0,332.41,992.67Z" transform="translate(-9.25 -83.65)" fill="#db7709"/><path d="M324.74,992.67h0a2.09,2.09,0,0,0,2.09-2.09V961.27a2.1,2.1,0,0,0-2.09-2.09h0a2.1,2.1,0,0,0-2.1,2.09v29.31A2.09,2.09,0,0,0,324.74,992.67Z" transform="translate(-9.25 -83.65)" fill="#db7709"/><path d="M317.06,992.67h0a2.08,2.08,0,0,0,2.09-2.09V961.27a2.09,2.09,0,0,0-2.09-2.09h0a2.1,2.1,0,0,0-2.09,2.09v29.31A2.09,2.09,0,0,0,317.06,992.67Z" transform="translate(-9.25 -83.65)" fill="#db7709"/><path d="M309.38,992.67h0a2.09,2.09,0,0,0,2.1-2.09V961.27a2.1,2.1,0,0,0-2.1-2.09h0a2.1,2.1,0,0,0-2.09,2.09v29.31A2.09,2.09,0,0,0,309.38,992.67Z" transform="translate(-9.25 -83.65)" fill="#fab65d"/><path d="M301.71,992.67h0a2.09,2.09,0,0,0,2.09-2.09V961.27a2.1,2.1,0,0,0-2.09-2.09h0a2.09,2.09,0,0,0-2.09,2.09v29.31A2.08,2.08,0,0,0,301.71,992.67Z" transform="translate(-9.25 -83.65)" fill="#fab65d"/><rect x="282.69" y="875.53" width="4.19" height="33.5" rx="0.59" fill="#fab65d"/><path d="M286.36,992.67h0a2.09,2.09,0,0,0,2.09-2.09V961.27a2.1,2.1,0,0,0-2.09-2.09h0a2.1,2.1,0,0,0-2.1,2.09v29.31A2.09,2.09,0,0,0,286.36,992.67Z" transform="translate(-9.25 -83.65)" fill="#fab65d"/><path d="M278.68,992.67h0a2.08,2.08,0,0,0,2.09-2.09V961.27a2.09,2.09,0,0,0-2.09-2.09h0a2.09,2.09,0,0,0-2.09,2.09v29.31A2.08,2.08,0,0,0,278.68,992.67Z" transform="translate(-9.25 -83.65)" fill="#fab65d"/><path d="M271,992.67h0a2.09,2.09,0,0,0,2.1-2.09V961.27a2.1,2.1,0,0,0-2.1-2.09h0a2.1,2.1,0,0,0-2.09,2.09v29.31A2.09,2.09,0,0,0,271,992.67Z" transform="translate(-9.25 -83.65)" fill="#fab65d"/><path d="M263.33,992.67h0a2.09,2.09,0,0,0,2.09-2.09V961.27a2.1,2.1,0,0,0-2.09-2.09h0a2.1,2.1,0,0,0-2.1,2.09v29.31A2.09,2.09,0,0,0,263.33,992.67Z" transform="translate(-9.25 -83.65)" fill="#fab65d"/><path d="M255.65,992.67h0a2.09,2.09,0,0,0,2.1-2.09V961.27a2.1,2.1,0,0,0-2.1-2.09h0a2.1,2.1,0,0,0-2.09,2.09v29.31A2.09,2.09,0,0,0,255.65,992.67Z" transform="translate(-9.25 -83.65)" fill="#fab65d"/><path d="M248,992.67h0a2.09,2.09,0,0,0,2.09-2.09V961.27a2.1,2.1,0,0,0-2.09-2.09h0a2.1,2.1,0,0,0-2.1,2.09v29.31A2.09,2.09,0,0,0,248,992.67Z" transform="translate(-9.25 -83.65)" fill="#fab65d"/><path d="M240.3,992.67h0a2.08,2.08,0,0,0,2.09-2.09V961.27a2.09,2.09,0,0,0-2.09-2.09h0a2.09,2.09,0,0,0-2.09,2.09v29.31A2.08,2.08,0,0,0,240.3,992.67Z" transform="translate(-9.25 -83.65)" fill="#fab65d"/><path d="M232.62,992.67h0a2.09,2.09,0,0,0,2.1-2.09V961.27a2.1,2.1,0,0,0-2.1-2.09h0a2.1,2.1,0,0,0-2.09,2.09v29.31A2.09,2.09,0,0,0,232.62,992.67Z" transform="translate(-9.25 -83.65)" fill="#fab65d"/><path d="M265.38,829.75H472.86a1.21,1.21,0,0,1,1.21,1.21v38.88a1.22,1.22,0,0,1-1.22,1.22H265.38a1.21,1.21,0,0,1-1.21-1.21V831A1.21,1.21,0,0,1,265.38,829.75Z" fill="#f9a63a"/><path d="M478.78,951.36h0a2.09,2.09,0,0,0,2.1-2.09V920a2.09,2.09,0,0,0-2.1-2.09h0a2.09,2.09,0,0,0-2.09,2.09v29.31A2.09,2.09,0,0,0,478.78,951.36Z" transform="translate(-9.25 -83.65)" fill="#fab65d"/><path d="M471.11,951.36h0a2.09,2.09,0,0,0,2.09-2.09V920a2.09,2.09,0,0,0-2.09-2.09h0A2.09,2.09,0,0,0,469,920v29.31A2.09,2.09,0,0,0,471.11,951.36Z" transform="translate(-9.25 -83.65)" fill="#fab65d"/><path d="M463.43,951.36h0a2.09,2.09,0,0,0,2.1-2.09V920a2.09,2.09,0,0,0-2.1-2.09h0a2.09,2.09,0,0,0-2.09,2.09v29.31A2.09,2.09,0,0,0,463.43,951.36Z" transform="translate(-9.25 -83.65)" fill="#fdd7a4"/><path d="M455.76,951.36h0a2.09,2.09,0,0,0,2.09-2.09V920a2.09,2.09,0,0,0-2.09-2.09h0a2.09,2.09,0,0,0-2.1,2.09v29.31A2.09,2.09,0,0,0,455.76,951.36Z" transform="translate(-9.25 -83.65)" fill="#fab65d"/><path d="M448.08,951.36h0a2.08,2.08,0,0,0,2.09-2.09V920a2.08,2.08,0,0,0-2.09-2.09h0A2.08,2.08,0,0,0,446,920v29.31A2.08,2.08,0,0,0,448.08,951.36Z" transform="translate(-9.25 -83.65)" fill="#fab65d"/><path d="M440.4,951.36h0a2.09,2.09,0,0,0,2.1-2.09V920a2.09,2.09,0,0,0-2.1-2.09h0a2.09,2.09,0,0,0-2.09,2.09v29.31A2.09,2.09,0,0,0,440.4,951.36Z" transform="translate(-9.25 -83.65)" fill="#fab65d"/><path d="M432.73,951.36h0a2.09,2.09,0,0,0,2.09-2.09V920a2.09,2.09,0,0,0-2.09-2.09h0a2.09,2.09,0,0,0-2.1,2.09v29.31A2.09,2.09,0,0,0,432.73,951.36Z" transform="translate(-9.25 -83.65)" fill="#fab65d"/><path d="M425.05,951.36h0a2.08,2.08,0,0,0,2.09-2.09V920a2.08,2.08,0,0,0-2.09-2.09h0A2.08,2.08,0,0,0,423,920v29.31A2.08,2.08,0,0,0,425.05,951.36Z" transform="translate(-9.25 -83.65)" fill="#fab65d"/><path d="M417.37,951.36h0a2.09,2.09,0,0,0,2.1-2.09V920a2.09,2.09,0,0,0-2.1-2.09h0a2.09,2.09,0,0,0-2.09,2.09v29.31A2.09,2.09,0,0,0,417.37,951.36Z" transform="translate(-9.25 -83.65)" fill="#fab65d"/><path d="M409.7,951.36h0a2.09,2.09,0,0,0,2.09-2.09V920a2.09,2.09,0,0,0-2.09-2.09h0a2.09,2.09,0,0,0-2.1,2.09v29.31A2.09,2.09,0,0,0,409.7,951.36Z" transform="translate(-9.25 -83.65)" fill="#fab65d"/><path d="M402,951.36h0a2.09,2.09,0,0,0,2.1-2.09V920a2.09,2.09,0,0,0-2.1-2.09h0a2.09,2.09,0,0,0-2.09,2.09v29.31A2.09,2.09,0,0,0,402,951.36Z" transform="translate(-9.25 -83.65)" fill="#fab65d"/><path d="M394.35,951.36h0a2.09,2.09,0,0,0,2.09-2.09V920a2.09,2.09,0,0,0-2.09-2.09h0a2.09,2.09,0,0,0-2.1,2.09v29.31A2.09,2.09,0,0,0,394.35,951.36Z" transform="translate(-9.25 -83.65)" fill="#fab65d"/><path d="M386.67,951.36h0a2.08,2.08,0,0,0,2.09-2.09V920a2.08,2.08,0,0,0-2.09-2.09h0a2.08,2.08,0,0,0-2.09,2.09v29.31A2.08,2.08,0,0,0,386.67,951.36Z" transform="translate(-9.25 -83.65)" fill="#fab65d"/><path d="M379,951.36h0a2.09,2.09,0,0,0,2.1-2.09V920a2.09,2.09,0,0,0-2.1-2.09h0A2.09,2.09,0,0,0,376.9,920v29.31A2.09,2.09,0,0,0,379,951.36Z" transform="translate(-9.25 -83.65)" fill="#fab65d"/><path d="M371.32,951.36h0a2.09,2.09,0,0,0,2.09-2.09V920a2.09,2.09,0,0,0-2.09-2.09h0a2.09,2.09,0,0,0-2.1,2.09v29.31A2.09,2.09,0,0,0,371.32,951.36Z" transform="translate(-9.25 -83.65)" fill="#db7709"/><path d="M363.64,951.36h0a2.08,2.08,0,0,0,2.09-2.09V920a2.08,2.08,0,0,0-2.09-2.09h0a2.09,2.09,0,0,0-2.09,2.09v29.31A2.09,2.09,0,0,0,363.64,951.36Z" transform="translate(-9.25 -83.65)" fill="#db7709"/><path d="M356,951.36h0a2.09,2.09,0,0,0,2.09-2.09V920a2.09,2.09,0,0,0-2.09-2.09h0a2.09,2.09,0,0,0-2.1,2.09v29.31A2.09,2.09,0,0,0,356,951.36Z" transform="translate(-9.25 -83.65)" fill="#db7709"/><path d="M348.29,951.36h0a2.08,2.08,0,0,0,2.09-2.09V920a2.08,2.08,0,0,0-2.09-2.09h0A2.08,2.08,0,0,0,346.2,920v29.31A2.08,2.08,0,0,0,348.29,951.36Z" transform="translate(-9.25 -83.65)" fill="#fab65d"/><path d="M340.61,951.36h0a2.09,2.09,0,0,0,2.1-2.09V920a2.09,2.09,0,0,0-2.1-2.09h0a2.09,2.09,0,0,0-2.09,2.09v29.31A2.09,2.09,0,0,0,340.61,951.36Z" transform="translate(-9.25 -83.65)" fill="#fab65d"/><path d="M332.94,951.36h0a2.09,2.09,0,0,0,2.09-2.09V920a2.09,2.09,0,0,0-2.09-2.09h0a2.09,2.09,0,0,0-2.1,2.09v29.31A2.09,2.09,0,0,0,332.94,951.36Z" transform="translate(-9.25 -83.65)" fill="#fab65d"/><path d="M325.26,951.36h0a2.08,2.08,0,0,0,2.09-2.09V920a2.08,2.08,0,0,0-2.09-2.09h0a2.08,2.08,0,0,0-2.09,2.09v29.31A2.08,2.08,0,0,0,325.26,951.36Z" transform="translate(-9.25 -83.65)" fill="#fab65d"/><path d="M317.58,951.36h0a2.09,2.09,0,0,0,2.1-2.09V920a2.09,2.09,0,0,0-2.1-2.09h0a2.09,2.09,0,0,0-2.09,2.09v29.31A2.09,2.09,0,0,0,317.58,951.36Z" transform="translate(-9.25 -83.65)" fill="#fab65d"/><path d="M309.91,951.36h0a2.09,2.09,0,0,0,2.09-2.09V920a2.09,2.09,0,0,0-2.09-2.09h0a2.09,2.09,0,0,0-2.1,2.09v29.31A2.09,2.09,0,0,0,309.91,951.36Z" transform="translate(-9.25 -83.65)" fill="#fab65d"/><path d="M302.23,951.36h0a2.09,2.09,0,0,0,2.1-2.09V920a2.09,2.09,0,0,0-2.1-2.09h0a2.09,2.09,0,0,0-2.09,2.09v29.31A2.09,2.09,0,0,0,302.23,951.36Z" transform="translate(-9.25 -83.65)" fill="#fab65d"/><path d="M294.56,951.36h0a2.09,2.09,0,0,0,2.09-2.09V920a2.09,2.09,0,0,0-2.09-2.09h0a2.09,2.09,0,0,0-2.1,2.09v29.31A2.09,2.09,0,0,0,294.56,951.36Z" transform="translate(-9.25 -83.65)" fill="#fab65d"/><path d="M286.88,951.36h0a2.08,2.08,0,0,0,2.09-2.09V920a2.08,2.08,0,0,0-2.09-2.09h0a2.08,2.08,0,0,0-2.09,2.09v29.31A2.08,2.08,0,0,0,286.88,951.36Z" transform="translate(-9.25 -83.65)" fill="#fab65d"/><path d="M279.2,951.36h0a2.09,2.09,0,0,0,2.1-2.09V920a2.09,2.09,0,0,0-2.1-2.09h0a2.09,2.09,0,0,0-2.09,2.09v29.31A2.09,2.09,0,0,0,279.2,951.36Z" transform="translate(-9.25 -83.65)" fill="#fab65d"/><path d="M271.53,951.36h0a2.09,2.09,0,0,0,2.09-2.09V920a2.09,2.09,0,0,0-2.09-2.09h0a2.09,2.09,0,0,0-2.1,2.09v29.31A2.09,2.09,0,0,0,271.53,951.36Z" transform="translate(-9.25 -83.65)" fill="#fab65d"/><rect x="241.66" y="788.44" width="209.91" height="41.31" rx="1.21" fill="#f89516"/><path d="M456.28,910.05h0a2.09,2.09,0,0,0,2.09-2.09V878.65a2.08,2.08,0,0,0-2.09-2.09h0a2.08,2.08,0,0,0-2.09,2.09V908A2.09,2.09,0,0,0,456.28,910.05Z" transform="translate(-9.25 -83.65)" fill="#fab65d"/><path d="M448.6,910.05h0a2.1,2.1,0,0,0,2.1-2.09V878.65a2.09,2.09,0,0,0-2.1-2.09h0a2.09,2.09,0,0,0-2.09,2.09V908A2.1,2.1,0,0,0,448.6,910.05Z" transform="translate(-9.25 -83.65)" fill="#fab65d"/><path d="M440.93,910.05h0A2.1,2.1,0,0,0,443,908V878.65a2.09,2.09,0,0,0-2.09-2.09h0a2.09,2.09,0,0,0-2.1,2.09V908A2.1,2.1,0,0,0,440.93,910.05Z" transform="translate(-9.25 -83.65)" fill="#fdd7a4"/><rect x="421.91" y="792.9" width="4.19" height="33.5" rx="0.59" fill="#fab65d"/><path d="M425.57,910.05h0a2.1,2.1,0,0,0,2.1-2.09V878.65a2.09,2.09,0,0,0-2.1-2.09h0a2.09,2.09,0,0,0-2.09,2.09V908A2.1,2.1,0,0,0,425.57,910.05Z" transform="translate(-9.25 -83.65)" fill="#fab65d"/><path d="M417.9,910.05h0A2.1,2.1,0,0,0,420,908V878.65a2.09,2.09,0,0,0-2.09-2.09h0a2.09,2.09,0,0,0-2.1,2.09V908A2.1,2.1,0,0,0,417.9,910.05Z" transform="translate(-9.25 -83.65)" fill="#fab65d"/><path d="M410.22,910.05h0a2.1,2.1,0,0,0,2.1-2.09V878.65a2.09,2.09,0,0,0-2.1-2.09h0a2.09,2.09,0,0,0-2.09,2.09V908A2.1,2.1,0,0,0,410.22,910.05Z" transform="translate(-9.25 -83.65)" fill="#fab65d"/><path d="M402.55,910.05h0a2.1,2.1,0,0,0,2.09-2.09V878.65a2.09,2.09,0,0,0-2.09-2.09h0a2.09,2.09,0,0,0-2.1,2.09V908A2.1,2.1,0,0,0,402.55,910.05Z" transform="translate(-9.25 -83.65)" fill="#fab65d"/><path d="M394.87,910.05h0A2.09,2.09,0,0,0,397,908V878.65a2.08,2.08,0,0,0-2.09-2.09h0a2.08,2.08,0,0,0-2.09,2.09V908A2.09,2.09,0,0,0,394.87,910.05Z" transform="translate(-9.25 -83.65)" fill="#fab65d"/><path d="M387.19,910.05h0a2.1,2.1,0,0,0,2.1-2.09V878.65a2.09,2.09,0,0,0-2.1-2.09h0a2.09,2.09,0,0,0-2.09,2.09V908A2.1,2.1,0,0,0,387.19,910.05Z" transform="translate(-9.25 -83.65)" fill="#fab65d"/><path d="M379.52,910.05h0a2.1,2.1,0,0,0,2.09-2.09V878.65a2.09,2.09,0,0,0-2.09-2.09h0a2.09,2.09,0,0,0-2.1,2.09V908A2.1,2.1,0,0,0,379.52,910.05Z" transform="translate(-9.25 -83.65)" fill="#fab65d"/><path d="M371.84,910.05h0a2.09,2.09,0,0,0,2.09-2.09V878.65a2.08,2.08,0,0,0-2.09-2.09h0a2.08,2.08,0,0,0-2.09,2.09V908A2.09,2.09,0,0,0,371.84,910.05Z" transform="translate(-9.25 -83.65)" fill="#fab65d"/><path d="M364.16,910.05h0a2.1,2.1,0,0,0,2.1-2.09V878.65a2.09,2.09,0,0,0-2.1-2.09h0a2.09,2.09,0,0,0-2.09,2.09V908A2.1,2.1,0,0,0,364.16,910.05Z" transform="translate(-9.25 -83.65)" fill="#fab65d"/><path d="M356.49,910.05h0a2.1,2.1,0,0,0,2.09-2.09V878.65a2.09,2.09,0,0,0-2.09-2.09h0a2.08,2.08,0,0,0-2.09,2.09V908A2.09,2.09,0,0,0,356.49,910.05Z" transform="translate(-9.25 -83.65)" fill="#fab65d"/><path d="M348.81,910.05h0a2.1,2.1,0,0,0,2.1-2.09V878.65a2.09,2.09,0,0,0-2.1-2.09h0a2.09,2.09,0,0,0-2.09,2.09V908A2.1,2.1,0,0,0,348.81,910.05Z" transform="translate(-9.25 -83.65)" fill="#db7709"/><path d="M341.14,910.05h0a2.1,2.1,0,0,0,2.09-2.09V878.65a2.09,2.09,0,0,0-2.09-2.09h0a2.09,2.09,0,0,0-2.1,2.09V908A2.1,2.1,0,0,0,341.14,910.05Z" transform="translate(-9.25 -83.65)" fill="#db7709"/><path d="M333.46,910.05h0a2.09,2.09,0,0,0,2.09-2.09V878.65a2.08,2.08,0,0,0-2.09-2.09h0a2.08,2.08,0,0,0-2.09,2.09V908A2.09,2.09,0,0,0,333.46,910.05Z" transform="translate(-9.25 -83.65)" fill="#db7709"/><path d="M325.78,910.05h0a2.1,2.1,0,0,0,2.1-2.09V878.65a2.09,2.09,0,0,0-2.1-2.09h0a2.09,2.09,0,0,0-2.09,2.09V908A2.1,2.1,0,0,0,325.78,910.05Z" transform="translate(-9.25 -83.65)" fill="#fab65d"/><path d="M318.11,910.05h0A2.1,2.1,0,0,0,320.2,908V878.65a2.09,2.09,0,0,0-2.09-2.09h0a2.09,2.09,0,0,0-2.1,2.09V908A2.1,2.1,0,0,0,318.11,910.05Z" transform="translate(-9.25 -83.65)" fill="#fab65d"/><path d="M310.43,910.05h0a2.1,2.1,0,0,0,2.1-2.09V878.65a2.09,2.09,0,0,0-2.1-2.09h0a2.09,2.09,0,0,0-2.09,2.09V908A2.1,2.1,0,0,0,310.43,910.05Z" transform="translate(-9.25 -83.65)" fill="#fab65d"/><path d="M302.76,910.05h0a2.1,2.1,0,0,0,2.09-2.09V878.65a2.09,2.09,0,0,0-2.09-2.09h0a2.09,2.09,0,0,0-2.1,2.09V908A2.1,2.1,0,0,0,302.76,910.05Z" transform="translate(-9.25 -83.65)" fill="#fab65d"/><path d="M295.08,910.05h0a2.09,2.09,0,0,0,2.09-2.09V878.65a2.08,2.08,0,0,0-2.09-2.09h0a2.08,2.08,0,0,0-2.09,2.09V908A2.09,2.09,0,0,0,295.08,910.05Z" transform="translate(-9.25 -83.65)" fill="#fab65d"/><path d="M287.4,910.05h0a2.1,2.1,0,0,0,2.1-2.09V878.65a2.09,2.09,0,0,0-2.1-2.09h0a2.09,2.09,0,0,0-2.09,2.09V908A2.1,2.1,0,0,0,287.4,910.05Z" transform="translate(-9.25 -83.65)" fill="#fab65d"/><path d="M279.73,910.05h0a2.1,2.1,0,0,0,2.09-2.09V878.65a2.09,2.09,0,0,0-2.09-2.09h0a2.09,2.09,0,0,0-2.1,2.09V908A2.1,2.1,0,0,0,279.73,910.05Z" transform="translate(-9.25 -83.65)" fill="#fab65d"/><path d="M272.05,910.05h0a2.09,2.09,0,0,0,2.09-2.09V878.65a2.08,2.08,0,0,0-2.09-2.09h0a2.08,2.08,0,0,0-2.09,2.09V908A2.09,2.09,0,0,0,272.05,910.05Z" transform="translate(-9.25 -83.65)" fill="#fab65d"/><path d="M264.37,910.05h0a2.1,2.1,0,0,0,2.1-2.09V878.65a2.09,2.09,0,0,0-2.1-2.09h0a2.09,2.09,0,0,0-2.09,2.09V908A2.1,2.1,0,0,0,264.37,910.05Z" transform="translate(-9.25 -83.65)" fill="#fab65d"/><path d="M256.7,910.05h0a2.1,2.1,0,0,0,2.09-2.09V878.65a2.09,2.09,0,0,0-2.09-2.09h0a2.08,2.08,0,0,0-2.09,2.09V908A2.09,2.09,0,0,0,256.7,910.05Z" transform="translate(-9.25 -83.65)" fill="#fab65d"/><path d="M249,910.05h0a2.1,2.1,0,0,0,2.1-2.09V878.65a2.09,2.09,0,0,0-2.1-2.09h0a2.09,2.09,0,0,0-2.09,2.09V908A2.1,2.1,0,0,0,249,910.05Z" transform="translate(-9.25 -83.65)" fill="#fab65d"/><path d="M646,747.13H853.44a1.22,1.22,0,0,1,1.22,1.22v38.88a1.22,1.22,0,0,1-1.22,1.22H646a1.21,1.21,0,0,1-1.21-1.21V748.34A1.21,1.21,0,0,1,646,747.13Z" fill="#f9a63a"/><path d="M859.36,868.74h0a2.1,2.1,0,0,0,2.1-2.09V837.34a2.1,2.1,0,0,0-2.1-2.1h0a2.1,2.1,0,0,0-2.09,2.1v29.31A2.1,2.1,0,0,0,859.36,868.74Z" transform="translate(-9.25 -83.65)" fill="#fab65d"/><path d="M851.69,868.74h0a2.1,2.1,0,0,0,2.09-2.09V837.34a2.1,2.1,0,0,0-2.09-2.1h0a2.1,2.1,0,0,0-2.1,2.1v29.31A2.1,2.1,0,0,0,851.69,868.74Z" transform="translate(-9.25 -83.65)" fill="#fab65d"/><path d="M844,868.74h0a2.09,2.09,0,0,0,2.09-2.09V837.34a2.09,2.09,0,0,0-2.09-2.1h0a2.09,2.09,0,0,0-2.09,2.1v29.31A2.09,2.09,0,0,0,844,868.74Z" transform="translate(-9.25 -83.65)" fill="#fdd7a4"/><path d="M836.33,868.74h0a2.1,2.1,0,0,0,2.1-2.09V837.34a2.1,2.1,0,0,0-2.1-2.1h0a2.1,2.1,0,0,0-2.09,2.1v29.31A2.1,2.1,0,0,0,836.33,868.74Z" transform="translate(-9.25 -83.65)" fill="#fab65d"/><path d="M828.66,868.74h0a2.1,2.1,0,0,0,2.09-2.09V837.34a2.1,2.1,0,0,0-2.09-2.1h0a2.1,2.1,0,0,0-2.1,2.1v29.31A2.1,2.1,0,0,0,828.66,868.74Z" transform="translate(-9.25 -83.65)" fill="#fab65d"/><path d="M821,868.74h0a2.1,2.1,0,0,0,2.1-2.09V837.34a2.1,2.1,0,0,0-2.1-2.1h0a2.1,2.1,0,0,0-2.09,2.1v29.31A2.1,2.1,0,0,0,821,868.74Z" transform="translate(-9.25 -83.65)" fill="#fab65d"/><path d="M813.31,868.74h0a2.1,2.1,0,0,0,2.09-2.09V837.34a2.1,2.1,0,0,0-2.09-2.1h0a2.1,2.1,0,0,0-2.1,2.1v29.31A2.1,2.1,0,0,0,813.31,868.74Z" transform="translate(-9.25 -83.65)" fill="#fab65d"/><path d="M805.63,868.74h0a2.09,2.09,0,0,0,2.09-2.09V837.34a2.09,2.09,0,0,0-2.09-2.1h0a2.09,2.09,0,0,0-2.09,2.1v29.31A2.09,2.09,0,0,0,805.63,868.74Z" transform="translate(-9.25 -83.65)" fill="#fab65d"/><path d="M798,868.74h0a2.1,2.1,0,0,0,2.1-2.09V837.34a2.1,2.1,0,0,0-2.1-2.1h0a2.1,2.1,0,0,0-2.09,2.1v29.31A2.1,2.1,0,0,0,798,868.74Z" transform="translate(-9.25 -83.65)" fill="#fab65d"/><path d="M790.28,868.74h0a2.1,2.1,0,0,0,2.09-2.09V837.34a2.1,2.1,0,0,0-2.09-2.1h0a2.1,2.1,0,0,0-2.1,2.1v29.31A2.1,2.1,0,0,0,790.28,868.74Z" transform="translate(-9.25 -83.65)" fill="#fab65d"/><path d="M782.6,868.74h0a2.09,2.09,0,0,0,2.09-2.09V837.34a2.09,2.09,0,0,0-2.09-2.1h0a2.1,2.1,0,0,0-2.09,2.1v29.31A2.1,2.1,0,0,0,782.6,868.74Z" transform="translate(-9.25 -83.65)" fill="#fab65d"/><path d="M774.93,868.74h0a2.1,2.1,0,0,0,2.09-2.09V837.34a2.1,2.1,0,0,0-2.09-2.1h0a2.1,2.1,0,0,0-2.1,2.1v29.31A2.1,2.1,0,0,0,774.93,868.74Z" transform="translate(-9.25 -83.65)" fill="#fab65d"/><path d="M767.25,868.74h0a2.09,2.09,0,0,0,2.09-2.09V837.34a2.09,2.09,0,0,0-2.09-2.1h0a2.09,2.09,0,0,0-2.09,2.1v29.31A2.09,2.09,0,0,0,767.25,868.74Z" transform="translate(-9.25 -83.65)" fill="#fab65d"/><path d="M759.57,868.74h0a2.1,2.1,0,0,0,2.1-2.09V837.34a2.1,2.1,0,0,0-2.1-2.1h0a2.1,2.1,0,0,0-2.09,2.1v29.31A2.1,2.1,0,0,0,759.57,868.74Z" transform="translate(-9.25 -83.65)" fill="#fab65d"/><path d="M751.9,868.74h0a2.1,2.1,0,0,0,2.09-2.09V837.34a2.1,2.1,0,0,0-2.09-2.1h0a2.1,2.1,0,0,0-2.1,2.1v29.31A2.1,2.1,0,0,0,751.9,868.74Z" transform="translate(-9.25 -83.65)" fill="#db7709"/><path d="M744.22,868.74h0a2.09,2.09,0,0,0,2.09-2.09V837.34a2.09,2.09,0,0,0-2.09-2.1h0a2.09,2.09,0,0,0-2.09,2.1v29.31A2.09,2.09,0,0,0,744.22,868.74Z" transform="translate(-9.25 -83.65)" fill="#db7709"/><path d="M736.54,868.74h0a2.1,2.1,0,0,0,2.1-2.09V837.34a2.1,2.1,0,0,0-2.1-2.1h0a2.1,2.1,0,0,0-2.09,2.1v29.31A2.1,2.1,0,0,0,736.54,868.74Z" transform="translate(-9.25 -83.65)" fill="#db7709"/><path d="M728.87,868.74h0a2.1,2.1,0,0,0,2.09-2.09V837.34a2.1,2.1,0,0,0-2.09-2.1h0a2.1,2.1,0,0,0-2.1,2.1v29.31A2.1,2.1,0,0,0,728.87,868.74Z" transform="translate(-9.25 -83.65)" fill="#fab65d"/><path d="M721.19,868.74h0a2.1,2.1,0,0,0,2.1-2.09V837.34a2.1,2.1,0,0,0-2.1-2.1h0a2.1,2.1,0,0,0-2.09,2.1v29.31A2.1,2.1,0,0,0,721.19,868.74Z" transform="translate(-9.25 -83.65)" fill="#fab65d"/><path d="M713.52,868.74h0a2.1,2.1,0,0,0,2.09-2.09V837.34a2.1,2.1,0,0,0-2.09-2.1h0a2.1,2.1,0,0,0-2.1,2.1v29.31A2.1,2.1,0,0,0,713.52,868.74Z" transform="translate(-9.25 -83.65)" fill="#fab65d"/><path d="M705.84,868.74h0a2.09,2.09,0,0,0,2.09-2.09V837.34a2.09,2.09,0,0,0-2.09-2.1h0a2.09,2.09,0,0,0-2.09,2.1v29.31A2.09,2.09,0,0,0,705.84,868.74Z" transform="translate(-9.25 -83.65)" fill="#fab65d"/><path d="M698.16,868.74h0a2.1,2.1,0,0,0,2.1-2.09V837.34a2.1,2.1,0,0,0-2.1-2.1h0a2.1,2.1,0,0,0-2.09,2.1v29.31A2.1,2.1,0,0,0,698.16,868.74Z" transform="translate(-9.25 -83.65)" fill="#fab65d"/><path d="M690.49,868.74h0a2.1,2.1,0,0,0,2.09-2.09V837.34a2.1,2.1,0,0,0-2.09-2.1h0a2.1,2.1,0,0,0-2.1,2.1v29.31A2.1,2.1,0,0,0,690.49,868.74Z" transform="translate(-9.25 -83.65)" fill="#fab65d"/><path d="M682.81,868.74h0a2.09,2.09,0,0,0,2.09-2.09V837.34a2.09,2.09,0,0,0-2.09-2.1h0a2.09,2.09,0,0,0-2.09,2.1v29.31A2.09,2.09,0,0,0,682.81,868.74Z" transform="translate(-9.25 -83.65)" fill="#fab65d"/><path d="M675.13,868.74h0a2.1,2.1,0,0,0,2.1-2.09V837.34a2.1,2.1,0,0,0-2.1-2.1h0a2.1,2.1,0,0,0-2.09,2.1v29.31A2.1,2.1,0,0,0,675.13,868.74Z" transform="translate(-9.25 -83.65)" fill="#fab65d"/><path d="M667.46,868.74h0a2.09,2.09,0,0,0,2.09-2.09V837.34a2.09,2.09,0,0,0-2.09-2.1h0a2.09,2.09,0,0,0-2.09,2.1v29.31A2.09,2.09,0,0,0,667.46,868.74Z" transform="translate(-9.25 -83.65)" fill="#fab65d"/><path d="M659.78,868.74h0a2.1,2.1,0,0,0,2.1-2.09V837.34a2.1,2.1,0,0,0-2.1-2.1h0a2.1,2.1,0,0,0-2.09,2.1v29.31A2.1,2.1,0,0,0,659.78,868.74Z" transform="translate(-9.25 -83.65)" fill="#fab65d"/><path d="M652.11,868.74h0a2.1,2.1,0,0,0,2.09-2.09V837.34a2.1,2.1,0,0,0-2.09-2.1h0a2.1,2.1,0,0,0-2.1,2.1v29.31A2.1,2.1,0,0,0,652.11,868.74Z" transform="translate(-9.25 -83.65)" fill="#fab65d"/><path d="M636.19,705.82H843.67a1.21,1.21,0,0,1,1.21,1.21v38.88a1.21,1.21,0,0,1-1.21,1.21H636.19a1.22,1.22,0,0,1-1.22-1.22V707A1.22,1.22,0,0,1,636.19,705.82Z" fill="#f89516"/><path d="M849.59,827.43h0a2.1,2.1,0,0,0,2.1-2.1V796a2.1,2.1,0,0,0-2.1-2.1h0a2.1,2.1,0,0,0-2.09,2.1v29.3A2.1,2.1,0,0,0,849.59,827.43Z" transform="translate(-9.25 -83.65)" fill="#fab65d"/><path d="M841.92,827.43h0a2.1,2.1,0,0,0,2.09-2.1V796a2.1,2.1,0,0,0-2.09-2.1h0a2.1,2.1,0,0,0-2.1,2.1v29.3A2.1,2.1,0,0,0,841.92,827.43Z" transform="translate(-9.25 -83.65)" fill="#fab65d"/><path d="M834.24,827.43h0a2.09,2.09,0,0,0,2.09-2.1V796a2.09,2.09,0,0,0-2.09-2.1h0a2.09,2.09,0,0,0-2.09,2.1v29.3A2.09,2.09,0,0,0,834.24,827.43Z" transform="translate(-9.25 -83.65)" fill="#fdd7a4"/><path d="M826.56,827.43h0a2.1,2.1,0,0,0,2.1-2.1V796a2.1,2.1,0,0,0-2.1-2.1h0a2.1,2.1,0,0,0-2.09,2.1v29.3A2.1,2.1,0,0,0,826.56,827.43Z" transform="translate(-9.25 -83.65)" fill="#fab65d"/><path d="M818.89,827.43h0a2.1,2.1,0,0,0,2.09-2.1V796a2.1,2.1,0,0,0-2.09-2.1h0a2.1,2.1,0,0,0-2.1,2.1v29.3A2.1,2.1,0,0,0,818.89,827.43Z" transform="translate(-9.25 -83.65)" fill="#fab65d"/><path d="M811.21,827.43h0a2.1,2.1,0,0,0,2.1-2.1V796a2.1,2.1,0,0,0-2.1-2.1h0a2.1,2.1,0,0,0-2.09,2.1v29.3A2.1,2.1,0,0,0,811.21,827.43Z" transform="translate(-9.25 -83.65)" fill="#fab65d"/><path d="M803.54,827.43h0a2.1,2.1,0,0,0,2.09-2.1V796a2.1,2.1,0,0,0-2.09-2.1h0a2.1,2.1,0,0,0-2.1,2.1v29.3A2.1,2.1,0,0,0,803.54,827.43Z" transform="translate(-9.25 -83.65)" fill="#fab65d"/><path d="M795.86,827.43h0a2.09,2.09,0,0,0,2.09-2.1V796a2.09,2.09,0,0,0-2.09-2.1h0a2.09,2.09,0,0,0-2.09,2.1v29.3A2.09,2.09,0,0,0,795.86,827.43Z" transform="translate(-9.25 -83.65)" fill="#fab65d"/><rect x="776.84" y="710.28" width="4.19" height="33.5" rx="0.59" fill="#fab65d"/><path d="M780.51,827.43h0a2.1,2.1,0,0,0,2.09-2.1V796a2.1,2.1,0,0,0-2.09-2.1h0a2.1,2.1,0,0,0-2.1,2.1v29.3A2.1,2.1,0,0,0,780.51,827.43Z" transform="translate(-9.25 -83.65)" fill="#fab65d"/><path d="M772.83,827.43h0a2.1,2.1,0,0,0,2.1-2.1V796a2.1,2.1,0,0,0-2.1-2.1h0a2.1,2.1,0,0,0-2.09,2.1v29.3A2.1,2.1,0,0,0,772.83,827.43Z" transform="translate(-9.25 -83.65)" fill="#fab65d"/><path d="M765.16,827.43h0a2.1,2.1,0,0,0,2.09-2.1V796a2.1,2.1,0,0,0-2.09-2.1h0a2.1,2.1,0,0,0-2.1,2.1v29.3A2.1,2.1,0,0,0,765.16,827.43Z" transform="translate(-9.25 -83.65)" fill="#fab65d"/><path d="M757.48,827.43h0a2.09,2.09,0,0,0,2.09-2.1V796a2.09,2.09,0,0,0-2.09-2.1h0a2.09,2.09,0,0,0-2.09,2.1v29.3A2.09,2.09,0,0,0,757.48,827.43Z" transform="translate(-9.25 -83.65)" fill="#fab65d"/><path d="M749.8,827.43h0a2.1,2.1,0,0,0,2.1-2.1V796a2.1,2.1,0,0,0-2.1-2.1h0a2.1,2.1,0,0,0-2.09,2.1v29.3A2.1,2.1,0,0,0,749.8,827.43Z" transform="translate(-9.25 -83.65)" fill="#fab65d"/><path d="M742.13,827.43h0a2.1,2.1,0,0,0,2.09-2.1V796a2.1,2.1,0,0,0-2.09-2.1h0A2.1,2.1,0,0,0,740,796v29.3A2.1,2.1,0,0,0,742.13,827.43Z" transform="translate(-9.25 -83.65)" fill="#db7709"/><path d="M734.45,827.43h0a2.09,2.09,0,0,0,2.09-2.1V796a2.09,2.09,0,0,0-2.09-2.1h0a2.09,2.09,0,0,0-2.09,2.1v29.3A2.09,2.09,0,0,0,734.45,827.43Z" transform="translate(-9.25 -83.65)" fill="#db7709"/><path d="M726.77,827.43h0a2.1,2.1,0,0,0,2.1-2.1V796a2.1,2.1,0,0,0-2.1-2.1h0a2.1,2.1,0,0,0-2.09,2.1v29.3A2.1,2.1,0,0,0,726.77,827.43Z" transform="translate(-9.25 -83.65)" fill="#db7709"/><path d="M719.1,827.43h0a2.1,2.1,0,0,0,2.09-2.1V796a2.1,2.1,0,0,0-2.09-2.1h0A2.09,2.09,0,0,0,717,796v29.3A2.09,2.09,0,0,0,719.1,827.43Z" transform="translate(-9.25 -83.65)" fill="#fab65d"/><path d="M711.42,827.43h0a2.1,2.1,0,0,0,2.1-2.1V796a2.1,2.1,0,0,0-2.1-2.1h0a2.1,2.1,0,0,0-2.09,2.1v29.3A2.1,2.1,0,0,0,711.42,827.43Z" transform="translate(-9.25 -83.65)" fill="#fab65d"/><path d="M703.75,827.43h0a2.1,2.1,0,0,0,2.09-2.1V796a2.1,2.1,0,0,0-2.09-2.1h0a2.1,2.1,0,0,0-2.1,2.1v29.3A2.1,2.1,0,0,0,703.75,827.43Z" transform="translate(-9.25 -83.65)" fill="#fab65d"/><path d="M696.07,827.43h0a2.09,2.09,0,0,0,2.09-2.1V796a2.09,2.09,0,0,0-2.09-2.1h0A2.09,2.09,0,0,0,694,796v29.3A2.09,2.09,0,0,0,696.07,827.43Z" transform="translate(-9.25 -83.65)" fill="#fab65d"/><path d="M688.39,827.43h0a2.1,2.1,0,0,0,2.1-2.1V796a2.1,2.1,0,0,0-2.1-2.1h0a2.1,2.1,0,0,0-2.09,2.1v29.3A2.1,2.1,0,0,0,688.39,827.43Z" transform="translate(-9.25 -83.65)" fill="#fab65d"/><path d="M680.72,827.43h0a2.1,2.1,0,0,0,2.09-2.1V796a2.1,2.1,0,0,0-2.09-2.1h0a2.1,2.1,0,0,0-2.1,2.1v29.3A2.1,2.1,0,0,0,680.72,827.43Z" transform="translate(-9.25 -83.65)" fill="#fab65d"/><path d="M673,827.43h0a2.09,2.09,0,0,0,2.09-2.1V796a2.09,2.09,0,0,0-2.09-2.1h0A2.1,2.1,0,0,0,671,796v29.3A2.1,2.1,0,0,0,673,827.43Z" transform="translate(-9.25 -83.65)" fill="#fab65d"/><path d="M665.37,827.43h0a2.1,2.1,0,0,0,2.09-2.1V796a2.1,2.1,0,0,0-2.09-2.1h0a2.1,2.1,0,0,0-2.1,2.1v29.3A2.1,2.1,0,0,0,665.37,827.43Z" transform="translate(-9.25 -83.65)" fill="#fab65d"/><path d="M657.69,827.43h0a2.09,2.09,0,0,0,2.09-2.1V796a2.09,2.09,0,0,0-2.09-2.1h0a2.09,2.09,0,0,0-2.09,2.1v29.3A2.09,2.09,0,0,0,657.69,827.43Z" transform="translate(-9.25 -83.65)" fill="#fab65d"/><path d="M650,827.43h0a2.1,2.1,0,0,0,2.1-2.1V796a2.1,2.1,0,0,0-2.1-2.1h0a2.1,2.1,0,0,0-2.09,2.1v29.3A2.1,2.1,0,0,0,650,827.43Z" transform="translate(-9.25 -83.65)" fill="#fab65d"/><path d="M642.34,827.43h0a2.1,2.1,0,0,0,2.09-2.1V796a2.1,2.1,0,0,0-2.09-2.1h0a2.1,2.1,0,0,0-2.1,2.1v29.3A2.1,2.1,0,0,0,642.34,827.43Z" transform="translate(-9.25 -83.65)" fill="#fab65d"/><path d="M666,664.5H873.5a1.21,1.21,0,0,1,1.21,1.21V704.6a1.22,1.22,0,0,1-1.22,1.22H666a1.22,1.22,0,0,1-1.22-1.22V665.72A1.21,1.21,0,0,1,666,664.5Z" fill="#f9a63a"/><path d="M879.43,786.12h0a2.1,2.1,0,0,0,2.09-2.1V754.71a2.1,2.1,0,0,0-2.09-2.09h0a2.1,2.1,0,0,0-2.1,2.09V784A2.1,2.1,0,0,0,879.43,786.12Z" transform="translate(-9.25 -83.65)" fill="#fab65d"/><path d="M871.75,786.12h0a2.09,2.09,0,0,0,2.09-2.1V754.71a2.09,2.09,0,0,0-2.09-2.09h0a2.09,2.09,0,0,0-2.09,2.09V784A2.09,2.09,0,0,0,871.75,786.12Z" transform="translate(-9.25 -83.65)" fill="#fab65d"/><path d="M864.07,786.12h0a2.1,2.1,0,0,0,2.1-2.1V754.71a2.1,2.1,0,0,0-2.1-2.09h0a2.1,2.1,0,0,0-2.09,2.09V784A2.1,2.1,0,0,0,864.07,786.12Z" transform="translate(-9.25 -83.65)" fill="#fdd7a4"/><path d="M856.4,786.12h0a2.1,2.1,0,0,0,2.09-2.1V754.71a2.1,2.1,0,0,0-2.09-2.09h0a2.1,2.1,0,0,0-2.1,2.09V784A2.1,2.1,0,0,0,856.4,786.12Z" transform="translate(-9.25 -83.65)" fill="#fab65d"/><path d="M848.72,786.12h0a2.09,2.09,0,0,0,2.09-2.1V754.71a2.09,2.09,0,0,0-2.09-2.09h0a2.09,2.09,0,0,0-2.09,2.09V784A2.09,2.09,0,0,0,848.72,786.12Z" transform="translate(-9.25 -83.65)" fill="#fab65d"/><path d="M841,786.12h0a2.1,2.1,0,0,0,2.1-2.1V754.71a2.1,2.1,0,0,0-2.1-2.09h0a2.1,2.1,0,0,0-2.09,2.09V784A2.1,2.1,0,0,0,841,786.12Z" transform="translate(-9.25 -83.65)" fill="#fab65d"/><path d="M833.37,786.12h0a2.1,2.1,0,0,0,2.09-2.1V754.71a2.1,2.1,0,0,0-2.09-2.09h0a2.09,2.09,0,0,0-2.09,2.09V784A2.09,2.09,0,0,0,833.37,786.12Z" transform="translate(-9.25 -83.65)" fill="#fab65d"/><path d="M825.69,786.12h0a2.1,2.1,0,0,0,2.1-2.1V754.71a2.1,2.1,0,0,0-2.1-2.09h0a2.1,2.1,0,0,0-2.09,2.09V784A2.1,2.1,0,0,0,825.69,786.12Z" transform="translate(-9.25 -83.65)" fill="#fab65d"/><path d="M818,786.12h0a2.1,2.1,0,0,0,2.09-2.1V754.71a2.1,2.1,0,0,0-2.09-2.09h0a2.1,2.1,0,0,0-2.1,2.09V784A2.1,2.1,0,0,0,818,786.12Z" transform="translate(-9.25 -83.65)" fill="#fab65d"/><path d="M810.34,786.12h0a2.09,2.09,0,0,0,2.09-2.1V754.71a2.09,2.09,0,0,0-2.09-2.09h0a2.09,2.09,0,0,0-2.09,2.09V784A2.09,2.09,0,0,0,810.34,786.12Z" transform="translate(-9.25 -83.65)" fill="#fab65d"/><path d="M802.66,786.12h0a2.1,2.1,0,0,0,2.1-2.1V754.71a2.1,2.1,0,0,0-2.1-2.09h0a2.1,2.1,0,0,0-2.09,2.09V784A2.1,2.1,0,0,0,802.66,786.12Z" transform="translate(-9.25 -83.65)" fill="#fab65d"/><path d="M795,786.12h0a2.1,2.1,0,0,0,2.09-2.1V754.71a2.1,2.1,0,0,0-2.09-2.09h0a2.1,2.1,0,0,0-2.1,2.09V784A2.1,2.1,0,0,0,795,786.12Z" transform="translate(-9.25 -83.65)" fill="#fab65d"/><path d="M787.31,786.12h0a2.1,2.1,0,0,0,2.1-2.1V754.71a2.1,2.1,0,0,0-2.1-2.09h0a2.1,2.1,0,0,0-2.09,2.09V784A2.1,2.1,0,0,0,787.31,786.12Z" transform="translate(-9.25 -83.65)" fill="#fab65d"/><path d="M779.64,786.12h0a2.1,2.1,0,0,0,2.09-2.1V754.71a2.1,2.1,0,0,0-2.09-2.09h0a2.1,2.1,0,0,0-2.1,2.09V784A2.1,2.1,0,0,0,779.64,786.12Z" transform="translate(-9.25 -83.65)" fill="#fab65d"/><path d="M772,786.12h0a2.09,2.09,0,0,0,2.09-2.1V754.71a2.09,2.09,0,0,0-2.09-2.09h0a2.09,2.09,0,0,0-2.09,2.09V784A2.09,2.09,0,0,0,772,786.12Z" transform="translate(-9.25 -83.65)" fill="#db7709"/><path d="M764.28,786.12h0a2.1,2.1,0,0,0,2.1-2.1V754.71a2.1,2.1,0,0,0-2.1-2.09h0a2.1,2.1,0,0,0-2.09,2.09V784A2.1,2.1,0,0,0,764.28,786.12Z" transform="translate(-9.25 -83.65)" fill="#db7709"/><path d="M756.61,786.12h0a2.1,2.1,0,0,0,2.09-2.1V754.71a2.1,2.1,0,0,0-2.09-2.09h0a2.1,2.1,0,0,0-2.1,2.09V784A2.1,2.1,0,0,0,756.61,786.12Z" transform="translate(-9.25 -83.65)" fill="#db7709"/><path d="M748.93,786.12h0A2.09,2.09,0,0,0,751,784V754.71a2.09,2.09,0,0,0-2.09-2.09h0a2.09,2.09,0,0,0-2.09,2.09V784A2.09,2.09,0,0,0,748.93,786.12Z" transform="translate(-9.25 -83.65)" fill="#fab65d"/><path d="M741.25,786.12h0a2.1,2.1,0,0,0,2.1-2.1V754.71a2.1,2.1,0,0,0-2.1-2.09h0a2.1,2.1,0,0,0-2.09,2.09V784A2.1,2.1,0,0,0,741.25,786.12Z" transform="translate(-9.25 -83.65)" fill="#fab65d"/><path d="M733.58,786.12h0a2.1,2.1,0,0,0,2.09-2.1V754.71a2.1,2.1,0,0,0-2.09-2.09h0a2.09,2.09,0,0,0-2.09,2.09V784A2.09,2.09,0,0,0,733.58,786.12Z" transform="translate(-9.25 -83.65)" fill="#fab65d"/><path d="M725.9,786.12h0A2.1,2.1,0,0,0,728,784V754.71a2.1,2.1,0,0,0-2.1-2.09h0a2.1,2.1,0,0,0-2.09,2.09V784A2.1,2.1,0,0,0,725.9,786.12Z" transform="translate(-9.25 -83.65)" fill="#fab65d"/><path d="M718.23,786.12h0a2.1,2.1,0,0,0,2.09-2.1V754.71a2.1,2.1,0,0,0-2.09-2.09h0a2.1,2.1,0,0,0-2.1,2.09V784A2.1,2.1,0,0,0,718.23,786.12Z" transform="translate(-9.25 -83.65)" fill="#fab65d"/><path d="M710.55,786.12h0a2.09,2.09,0,0,0,2.09-2.1V754.71a2.09,2.09,0,0,0-2.09-2.09h0a2.09,2.09,0,0,0-2.09,2.09V784A2.09,2.09,0,0,0,710.55,786.12Z" transform="translate(-9.25 -83.65)" fill="#fab65d"/><path d="M702.87,786.12h0A2.1,2.1,0,0,0,705,784V754.71a2.1,2.1,0,0,0-2.1-2.09h0a2.1,2.1,0,0,0-2.09,2.09V784A2.1,2.1,0,0,0,702.87,786.12Z" transform="translate(-9.25 -83.65)" fill="#fab65d"/><path d="M695.2,786.12h0a2.1,2.1,0,0,0,2.09-2.1V754.71a2.1,2.1,0,0,0-2.09-2.09h0a2.1,2.1,0,0,0-2.1,2.09V784A2.1,2.1,0,0,0,695.2,786.12Z" transform="translate(-9.25 -83.65)" fill="#fab65d"/><path d="M687.52,786.12h0a2.09,2.09,0,0,0,2.09-2.1V754.71a2.09,2.09,0,0,0-2.09-2.09h0a2.1,2.1,0,0,0-2.09,2.09V784A2.1,2.1,0,0,0,687.52,786.12Z" transform="translate(-9.25 -83.65)" fill="#fab65d"/><path d="M679.85,786.12h0a2.1,2.1,0,0,0,2.09-2.1V754.71a2.1,2.1,0,0,0-2.09-2.09h0a2.1,2.1,0,0,0-2.1,2.09V784A2.1,2.1,0,0,0,679.85,786.12Z" transform="translate(-9.25 -83.65)" fill="#fab65d"/><path d="M672.17,786.12h0a2.09,2.09,0,0,0,2.09-2.1V754.71a2.09,2.09,0,0,0-2.09-2.09h0a2.09,2.09,0,0,0-2.09,2.09V784A2.09,2.09,0,0,0,672.17,786.12Z" transform="translate(-9.25 -83.65)" fill="#fab65d"/><path d="M653.78,623.19H861.26a1.22,1.22,0,0,1,1.22,1.22v38.88a1.21,1.21,0,0,1-1.21,1.21H653.78a1.21,1.21,0,0,1-1.21-1.21V624.41A1.21,1.21,0,0,1,653.78,623.19Z" fill="#f89516"/><path d="M867.18,744.8h0a2.09,2.09,0,0,0,2.1-2.09V713.4a2.1,2.1,0,0,0-2.1-2.09h0a2.1,2.1,0,0,0-2.09,2.09v29.31A2.09,2.09,0,0,0,867.18,744.8Z" transform="translate(-9.25 -83.65)" fill="#fab65d"/><path d="M859.51,744.8h0a2.09,2.09,0,0,0,2.09-2.09V713.4a2.1,2.1,0,0,0-2.09-2.09h0a2.1,2.1,0,0,0-2.1,2.09v29.31A2.09,2.09,0,0,0,859.51,744.8Z" transform="translate(-9.25 -83.65)" fill="#fab65d"/><path d="M851.83,744.8h0a2.08,2.08,0,0,0,2.09-2.09V713.4a2.09,2.09,0,0,0-2.09-2.09h0a2.1,2.1,0,0,0-2.09,2.09v29.31A2.09,2.09,0,0,0,851.83,744.8Z" transform="translate(-9.25 -83.65)" fill="#fdd7a4"/><path d="M844.16,744.8h0a2.09,2.09,0,0,0,2.09-2.09V713.4a2.1,2.1,0,0,0-2.09-2.09h0a2.1,2.1,0,0,0-2.1,2.09v29.31A2.09,2.09,0,0,0,844.16,744.8Z" transform="translate(-9.25 -83.65)" fill="#fab65d"/><path d="M836.48,744.8h0a2.08,2.08,0,0,0,2.09-2.09V713.4a2.09,2.09,0,0,0-2.09-2.09h0a2.09,2.09,0,0,0-2.09,2.09v29.31A2.08,2.08,0,0,0,836.48,744.8Z" transform="translate(-9.25 -83.65)" fill="#fab65d"/><path d="M828.8,744.8h0a2.09,2.09,0,0,0,2.1-2.09V713.4a2.1,2.1,0,0,0-2.1-2.09h0a2.1,2.1,0,0,0-2.09,2.09v29.31A2.09,2.09,0,0,0,828.8,744.8Z" transform="translate(-9.25 -83.65)" fill="#fab65d"/><path d="M821.13,744.8h0a2.09,2.09,0,0,0,2.09-2.09V713.4a2.1,2.1,0,0,0-2.09-2.09h0a2.1,2.1,0,0,0-2.1,2.09v29.31A2.09,2.09,0,0,0,821.13,744.8Z" transform="translate(-9.25 -83.65)" fill="#fab65d"/><path d="M813.45,744.8h0a2.08,2.08,0,0,0,2.09-2.09V713.4a2.09,2.09,0,0,0-2.09-2.09h0a2.09,2.09,0,0,0-2.09,2.09v29.31A2.08,2.08,0,0,0,813.45,744.8Z" transform="translate(-9.25 -83.65)" fill="#fab65d"/><path d="M805.77,744.8h0a2.09,2.09,0,0,0,2.1-2.09V713.4a2.1,2.1,0,0,0-2.1-2.09h0a2.1,2.1,0,0,0-2.09,2.09v29.31A2.09,2.09,0,0,0,805.77,744.8Z" transform="translate(-9.25 -83.65)" fill="#fab65d"/><path d="M798.1,744.8h0a2.09,2.09,0,0,0,2.09-2.09V713.4a2.1,2.1,0,0,0-2.09-2.09h0a2.1,2.1,0,0,0-2.1,2.09v29.31A2.09,2.09,0,0,0,798.1,744.8Z" transform="translate(-9.25 -83.65)" fill="#fab65d"/><path d="M790.42,744.8h0a2.09,2.09,0,0,0,2.1-2.09V713.4a2.1,2.1,0,0,0-2.1-2.09h0a2.1,2.1,0,0,0-2.09,2.09v29.31A2.09,2.09,0,0,0,790.42,744.8Z" transform="translate(-9.25 -83.65)" fill="#fab65d"/><path d="M782.75,744.8h0a2.09,2.09,0,0,0,2.09-2.09V713.4a2.1,2.1,0,0,0-2.09-2.09h0a2.1,2.1,0,0,0-2.1,2.09v29.31A2.09,2.09,0,0,0,782.75,744.8Z" transform="translate(-9.25 -83.65)" fill="#fab65d"/><path d="M775.07,744.8h0a2.08,2.08,0,0,0,2.09-2.09V713.4a2.09,2.09,0,0,0-2.09-2.09h0A2.09,2.09,0,0,0,773,713.4v29.31A2.08,2.08,0,0,0,775.07,744.8Z" transform="translate(-9.25 -83.65)" fill="#fab65d"/><rect x="756.05" y="627.66" width="4.19" height="33.5" rx="0.59" fill="#fab65d"/><path d="M759.72,744.8h0a2.09,2.09,0,0,0,2.09-2.09V713.4a2.1,2.1,0,0,0-2.09-2.09h0a2.1,2.1,0,0,0-2.1,2.09v29.31A2.09,2.09,0,0,0,759.72,744.8Z" transform="translate(-9.25 -83.65)" fill="#db7709"/><path d="M752,744.8h0a2.08,2.08,0,0,0,2.09-2.09V713.4a2.09,2.09,0,0,0-2.09-2.09h0A2.1,2.1,0,0,0,750,713.4v29.31A2.09,2.09,0,0,0,752,744.8Z" transform="translate(-9.25 -83.65)" fill="#db7709"/><path d="M744.36,744.8h0a2.09,2.09,0,0,0,2.1-2.09V713.4a2.1,2.1,0,0,0-2.1-2.09h0a2.1,2.1,0,0,0-2.09,2.09v29.31A2.09,2.09,0,0,0,744.36,744.8Z" transform="translate(-9.25 -83.65)" fill="#db7709"/><path d="M736.69,744.8h0a2.09,2.09,0,0,0,2.09-2.09V713.4a2.1,2.1,0,0,0-2.09-2.09h0a2.09,2.09,0,0,0-2.09,2.09v29.31A2.08,2.08,0,0,0,736.69,744.8Z" transform="translate(-9.25 -83.65)" fill="#fab65d"/><path d="M729,744.8h0a2.09,2.09,0,0,0,2.1-2.09V713.4a2.1,2.1,0,0,0-2.1-2.09h0a2.1,2.1,0,0,0-2.09,2.09v29.31A2.09,2.09,0,0,0,729,744.8Z" transform="translate(-9.25 -83.65)" fill="#fab65d"/><path d="M721.34,744.8h0a2.09,2.09,0,0,0,2.09-2.09V713.4a2.1,2.1,0,0,0-2.09-2.09h0a2.1,2.1,0,0,0-2.1,2.09v29.31A2.09,2.09,0,0,0,721.34,744.8Z" transform="translate(-9.25 -83.65)" fill="#fab65d"/><path d="M713.66,744.8h0a2.08,2.08,0,0,0,2.09-2.09V713.4a2.09,2.09,0,0,0-2.09-2.09h0a2.09,2.09,0,0,0-2.09,2.09v29.31A2.08,2.08,0,0,0,713.66,744.8Z" transform="translate(-9.25 -83.65)" fill="#fab65d"/><path d="M706,744.8h0a2.09,2.09,0,0,0,2.1-2.09V713.4a2.1,2.1,0,0,0-2.1-2.09h0a2.1,2.1,0,0,0-2.09,2.09v29.31A2.09,2.09,0,0,0,706,744.8Z" transform="translate(-9.25 -83.65)" fill="#fab65d"/><path d="M698.31,744.8h0a2.09,2.09,0,0,0,2.09-2.09V713.4a2.1,2.1,0,0,0-2.09-2.09h0a2.1,2.1,0,0,0-2.1,2.09v29.31A2.09,2.09,0,0,0,698.31,744.8Z" transform="translate(-9.25 -83.65)" fill="#fab65d"/><path d="M690.63,744.8h0a2.09,2.09,0,0,0,2.1-2.09V713.4a2.1,2.1,0,0,0-2.1-2.09h0a2.1,2.1,0,0,0-2.09,2.09v29.31A2.09,2.09,0,0,0,690.63,744.8Z" transform="translate(-9.25 -83.65)" fill="#fab65d"/><path d="M683,744.8h0a2.09,2.09,0,0,0,2.09-2.09V713.4a2.1,2.1,0,0,0-2.09-2.09h0a2.1,2.1,0,0,0-2.1,2.09v29.31A2.09,2.09,0,0,0,683,744.8Z" transform="translate(-9.25 -83.65)" fill="#fab65d"/><path d="M675.28,744.8h0a2.08,2.08,0,0,0,2.09-2.09V713.4a2.09,2.09,0,0,0-2.09-2.09h0a2.09,2.09,0,0,0-2.09,2.09v29.31A2.08,2.08,0,0,0,675.28,744.8Z" transform="translate(-9.25 -83.65)" fill="#fab65d"/><path d="M667.6,744.8h0a2.09,2.09,0,0,0,2.1-2.09V713.4a2.1,2.1,0,0,0-2.1-2.09h0a2.1,2.1,0,0,0-2.09,2.09v29.31A2.09,2.09,0,0,0,667.6,744.8Z" transform="translate(-9.25 -83.65)" fill="#fab65d"/><path d="M659.93,744.8h0a2.09,2.09,0,0,0,2.09-2.09V713.4a2.1,2.1,0,0,0-2.09-2.09h0a2.1,2.1,0,0,0-2.1,2.09v29.31A2.09,2.09,0,0,0,659.93,744.8Z" transform="translate(-9.25 -83.65)" fill="#fab65d"/><path d="M616.45,581.88H823.92a1.21,1.21,0,0,1,1.21,1.21V622a1.22,1.22,0,0,1-1.22,1.22H616.45a1.21,1.21,0,0,1-1.21-1.21V583.09A1.21,1.21,0,0,1,616.45,581.88Z" fill="#f9a63a"/><path d="M829.85,703.49h0a2.08,2.08,0,0,0,2.09-2.09V672.09a2.08,2.08,0,0,0-2.09-2.09h0a2.08,2.08,0,0,0-2.09,2.09V701.4A2.08,2.08,0,0,0,829.85,703.49Z" transform="translate(-9.25 -83.65)" fill="#fab65d"/><path d="M822.17,703.49h0a2.09,2.09,0,0,0,2.1-2.09V672.09a2.09,2.09,0,0,0-2.1-2.09h0a2.09,2.09,0,0,0-2.09,2.09V701.4A2.09,2.09,0,0,0,822.17,703.49Z" transform="translate(-9.25 -83.65)" fill="#fab65d"/><path d="M814.5,703.49h0a2.09,2.09,0,0,0,2.09-2.09V672.09A2.09,2.09,0,0,0,814.5,670h0a2.09,2.09,0,0,0-2.1,2.09V701.4A2.09,2.09,0,0,0,814.5,703.49Z" transform="translate(-9.25 -83.65)" fill="#fdd7a4"/><path d="M806.82,703.49h0a2.08,2.08,0,0,0,2.09-2.09V672.09a2.08,2.08,0,0,0-2.09-2.09h0a2.09,2.09,0,0,0-2.09,2.09V701.4A2.09,2.09,0,0,0,806.82,703.49Z" transform="translate(-9.25 -83.65)" fill="#fab65d"/><path d="M799.14,703.49h0a2.09,2.09,0,0,0,2.1-2.09V672.09a2.09,2.09,0,0,0-2.1-2.09h0a2.09,2.09,0,0,0-2.09,2.09V701.4A2.09,2.09,0,0,0,799.14,703.49Z" transform="translate(-9.25 -83.65)" fill="#fab65d"/><path d="M791.47,703.49h0a2.09,2.09,0,0,0,2.09-2.09V672.09a2.09,2.09,0,0,0-2.09-2.09h0a2.08,2.08,0,0,0-2.09,2.09V701.4A2.08,2.08,0,0,0,791.47,703.49Z" transform="translate(-9.25 -83.65)" fill="#fab65d"/><path d="M783.79,703.49h0a2.09,2.09,0,0,0,2.1-2.09V672.09a2.09,2.09,0,0,0-2.1-2.09h0a2.09,2.09,0,0,0-2.09,2.09V701.4A2.09,2.09,0,0,0,783.79,703.49Z" transform="translate(-9.25 -83.65)" fill="#fab65d"/><path d="M776.12,703.49h0a2.09,2.09,0,0,0,2.09-2.09V672.09a2.09,2.09,0,0,0-2.09-2.09h0a2.09,2.09,0,0,0-2.1,2.09V701.4A2.09,2.09,0,0,0,776.12,703.49Z" transform="translate(-9.25 -83.65)" fill="#fab65d"/><path d="M768.44,703.49h0a2.08,2.08,0,0,0,2.09-2.09V672.09a2.08,2.08,0,0,0-2.09-2.09h0a2.08,2.08,0,0,0-2.09,2.09V701.4A2.08,2.08,0,0,0,768.44,703.49Z" transform="translate(-9.25 -83.65)" fill="#fab65d"/><path d="M760.76,703.49h0a2.09,2.09,0,0,0,2.1-2.09V672.09a2.09,2.09,0,0,0-2.1-2.09h0a2.09,2.09,0,0,0-2.09,2.09V701.4A2.09,2.09,0,0,0,760.76,703.49Z" transform="translate(-9.25 -83.65)" fill="#fab65d"/><path d="M753.09,703.49h0a2.09,2.09,0,0,0,2.09-2.09V672.09a2.09,2.09,0,0,0-2.09-2.09h0a2.09,2.09,0,0,0-2.1,2.09V701.4A2.09,2.09,0,0,0,753.09,703.49Z" transform="translate(-9.25 -83.65)" fill="#fab65d"/><path d="M745.41,703.49h0a2.09,2.09,0,0,0,2.1-2.09V672.09a2.09,2.09,0,0,0-2.1-2.09h0a2.09,2.09,0,0,0-2.09,2.09V701.4A2.09,2.09,0,0,0,745.41,703.49Z" transform="translate(-9.25 -83.65)" fill="#fab65d"/><path d="M737.74,703.49h0a2.09,2.09,0,0,0,2.09-2.09V672.09a2.09,2.09,0,0,0-2.09-2.09h0a2.09,2.09,0,0,0-2.1,2.09V701.4A2.09,2.09,0,0,0,737.74,703.49Z" transform="translate(-9.25 -83.65)" fill="#fab65d"/><path d="M730.06,703.49h0a2.08,2.08,0,0,0,2.09-2.09V672.09a2.08,2.08,0,0,0-2.09-2.09h0a2.08,2.08,0,0,0-2.09,2.09V701.4A2.08,2.08,0,0,0,730.06,703.49Z" transform="translate(-9.25 -83.65)" fill="#fab65d"/><path d="M722.38,703.49h0a2.09,2.09,0,0,0,2.1-2.09V672.09a2.09,2.09,0,0,0-2.1-2.09h0a2.09,2.09,0,0,0-2.09,2.09V701.4A2.09,2.09,0,0,0,722.38,703.49Z" transform="translate(-9.25 -83.65)" fill="#db7709"/><path d="M714.71,703.49h0a2.09,2.09,0,0,0,2.09-2.09V672.09a2.09,2.09,0,0,0-2.09-2.09h0a2.09,2.09,0,0,0-2.1,2.09V701.4A2.09,2.09,0,0,0,714.71,703.49Z" transform="translate(-9.25 -83.65)" fill="#db7709"/><path d="M707,703.49h0a2.08,2.08,0,0,0,2.09-2.09V672.09A2.08,2.08,0,0,0,707,670h0a2.08,2.08,0,0,0-2.09,2.09V701.4A2.08,2.08,0,0,0,707,703.49Z" transform="translate(-9.25 -83.65)" fill="#db7709"/><path d="M699.35,703.49h0a2.09,2.09,0,0,0,2.1-2.09V672.09a2.09,2.09,0,0,0-2.1-2.09h0a2.09,2.09,0,0,0-2.09,2.09V701.4A2.09,2.09,0,0,0,699.35,703.49Z" transform="translate(-9.25 -83.65)" fill="#fab65d"/><path d="M691.68,703.49h0a2.08,2.08,0,0,0,2.09-2.09V672.09a2.08,2.08,0,0,0-2.09-2.09h0a2.08,2.08,0,0,0-2.09,2.09V701.4A2.08,2.08,0,0,0,691.68,703.49Z" transform="translate(-9.25 -83.65)" fill="#fab65d"/><path d="M684,703.49h0a2.09,2.09,0,0,0,2.1-2.09V672.09A2.09,2.09,0,0,0,684,670h0a2.09,2.09,0,0,0-2.09,2.09V701.4A2.09,2.09,0,0,0,684,703.49Z" transform="translate(-9.25 -83.65)" fill="#fab65d"/><path d="M676.33,703.49h0a2.09,2.09,0,0,0,2.09-2.09V672.09a2.09,2.09,0,0,0-2.09-2.09h0a2.09,2.09,0,0,0-2.1,2.09V701.4A2.09,2.09,0,0,0,676.33,703.49Z" transform="translate(-9.25 -83.65)" fill="#fab65d"/><path d="M668.65,703.49h0a2.08,2.08,0,0,0,2.09-2.09V672.09a2.08,2.08,0,0,0-2.09-2.09h0a2.08,2.08,0,0,0-2.09,2.09V701.4A2.08,2.08,0,0,0,668.65,703.49Z" transform="translate(-9.25 -83.65)" fill="#fab65d"/><path d="M661,703.49h0a2.09,2.09,0,0,0,2.1-2.09V672.09A2.09,2.09,0,0,0,661,670h0a2.09,2.09,0,0,0-2.09,2.09V701.4A2.09,2.09,0,0,0,661,703.49Z" transform="translate(-9.25 -83.65)" fill="#fab65d"/><path d="M653.3,703.49h0a2.09,2.09,0,0,0,2.09-2.09V672.09A2.09,2.09,0,0,0,653.3,670h0a2.09,2.09,0,0,0-2.1,2.09V701.4A2.09,2.09,0,0,0,653.3,703.49Z" transform="translate(-9.25 -83.65)" fill="#fab65d"/><path d="M645.62,703.49h0a2.09,2.09,0,0,0,2.1-2.09V672.09a2.09,2.09,0,0,0-2.1-2.09h0a2.09,2.09,0,0,0-2.09,2.09V701.4A2.09,2.09,0,0,0,645.62,703.49Z" transform="translate(-9.25 -83.65)" fill="#fab65d"/><path d="M638,703.49h0A2.09,2.09,0,0,0,640,701.4V672.09A2.09,2.09,0,0,0,638,670h0a2.09,2.09,0,0,0-2.1,2.09V701.4A2.09,2.09,0,0,0,638,703.49Z" transform="translate(-9.25 -83.65)" fill="#fab65d"/><path d="M630.27,703.49h0a2.08,2.08,0,0,0,2.09-2.09V672.09a2.08,2.08,0,0,0-2.09-2.09h0a2.08,2.08,0,0,0-2.09,2.09V701.4A2.08,2.08,0,0,0,630.27,703.49Z" transform="translate(-9.25 -83.65)" fill="#fab65d"/><path d="M622.59,703.49h0a2.09,2.09,0,0,0,2.1-2.09V672.09a2.09,2.09,0,0,0-2.1-2.09h0a2.09,2.09,0,0,0-2.09,2.09V701.4A2.09,2.09,0,0,0,622.59,703.49Z" transform="translate(-9.25 -83.65)" fill="#fab65d"/><path d="M435.26,996.35h-33.4a69.63,69.63,0,0,1-69.6-69.61V205.28a69.61,69.61,0,0,1,69.6-69.61h33.4a69.62,69.62,0,0,0-69.61,69.61V926.74A69.64,69.64,0,0,0,435.26,996.35Z" transform="translate(-9.25 -83.65)" fill="#cdd9fc" opacity="0.5" style="mix-blend-mode:multiply"/><path d="M677.25,996.35h33.39a69.64,69.64,0,0,0,69.61-69.61V205.28a69.62,69.62,0,0,0-69.61-69.61H677.25a69.61,69.61,0,0,1,69.6,69.61V926.74A69.64,69.64,0,0,1,677.25,996.35Z" transform="translate(-9.25 -83.65)" fill="#cdd9fc" style="mix-blend-mode:multiply"/><path d="M764.78,205.28V926.74a69.61,69.61,0,0,1-69.6,69.61H408.82a69.63,69.63,0,0,1-69.6-69.61V205.28a69.61,69.61,0,0,1,69.6-69.61H695.18A69.59,69.59,0,0,1,764.78,205.28Z" transform="translate(-9.25 -83.65)" fill="#2f7d33"/><path d="M764.78,205.28V926.74a69.61,69.61,0,0,1-69.6,69.61h-33.4a69.62,69.62,0,0,0,69.61-69.61V205.28a69.6,69.6,0,0,0-69.61-69.61h33.4A69.59,69.59,0,0,1,764.78,205.28Z" transform="translate(-9.25 -83.65)" fill="#2f7d33"/><rect x="354.37" y="72.99" width="376.77" height="818.73" rx="38.07" fill="#fff"/><rect x="469.89" y="853.34" width="132.17" height="5.18" rx="0.61" fill="#dde6e9"/><path d="M444.54,143.57v11.84a23.88,23.88,0,0,0,23.85,23.91H635.62a23.88,23.88,0,0,0,23.85-23.91V138.47Z" transform="translate(-9.25 -83.65)" fill="#2f7d33"/><path d="M625.06,157.46a3.56,3.56,0,1,1-3.56-3.56A3.56,3.56,0,0,1,625.06,157.46Z" transform="translate(-9.25 -83.65)" fill="#fff" opacity="0.3"/><path d="M585,161H518.43a3.57,3.57,0,0,1-3.56-3.56h0a3.56,3.56,0,0,1,3.56-3.56H585a3.56,3.56,0,0,1,3.56,3.56h0A3.56,3.56,0,0,1,585,161Z" transform="translate(-9.25 -83.65)" fill="#fff" opacity="0.3"/><path d="M668,462.14c-10.14,7-29,15-58.22,8.58-30.16-6.63-44.68-23.93-51.24-35.46a5.51,5.51,0,0,0-9.61,0,65.77,65.77,0,0,1-4.56,7,69.38,69.38,0,0,1-9.23,10.08,72.66,72.66,0,0,1-6.16,4.94,84.2,84.2,0,0,1-31.23,13.44,98.83,98.83,0,0,1-15.34,2.2c-1.59.09-3.13.15-4.64.16a78.17,78.17,0,0,1-8.28-.38,71.23,71.23,0,0,1-8-1.24,66.1,66.1,0,0,1-6.79-1.84,62.4,62.4,0,0,1-8.55-3.54c-.84-.43-1.65-.87-2.42-1.3-1.55-.88-2.95-1.77-4.22-2.64a5.79,5.79,0,0,0-3.1-1.05,6,6,0,0,0-3,.7,5.84,5.84,0,0,0-3.13,5.24c0,3,.07,6.36.16,10.14.06,2.52.15,5.2.25,8,.16,4.24.37,8.81.65,13.64A528,528,0,0,0,438.16,559q.51,2.91,1.07,5.81c3.72,19.36,9,38.57,16.34,55.12q2.22,5,4.7,9.59a292.27,292.27,0,0,0,19.65,32.08c3.31,4.62,6.67,8.91,10.11,12.92a145,145,0,0,0,22.08,20.9c4,3,8.12,5.86,12.47,8.54s8.94,5.19,13.77,7.6,9.92,4.71,15.31,7l.12,0c21.6-8.94,38.37-18.92,53.05-32.81s27.25-31.67,40.46-56.22C673.73,580.27,677,498.64,677.23,467A5.89,5.89,0,0,0,668,462.14Z" transform="translate(-9.25 -83.65)" fill="#f9a63a"/><path d="M553.77,700.31q-4.1-1.83-7.94-3.75c-4.5-2.25-8.58-4.5-12.49-6.9a133.43,133.43,0,0,1-11.07-7.57,128.4,128.4,0,0,1-19.55-18.52c-3.1-3.6-6.19-7.55-9.19-11.74A277.77,277.77,0,0,1,475,621.57c-1.43-2.67-2.83-5.52-4.15-8.48-6.19-13.86-11.3-31.17-15.19-51.46-.36-1.84-.7-3.71-1-5.57a506.72,506.72,0,0,1-6.55-58.21c-.27-4.6-.47-9-.62-13,.66.24,1.32.47,2,.69a83.9,83.9,0,0,0,8.53,2.31,88,88,0,0,0,9.86,1.52,93.46,93.46,0,0,0,9.37.47h.66c1.8,0,3.64-.07,5.53-.18a119.22,119.22,0,0,0,17.94-2.56,101,101,0,0,0,37.37-16.18,87.31,87.31,0,0,0,7.6-6.09,85.83,85.83,0,0,0,7.46-7.56c10.06,11.47,26.52,24.14,52.41,29.83a112.22,112.22,0,0,0,24.16,2.75,87.29,87.29,0,0,0,29.69-5c-1.35,34.76-6.75,98.07-27.52,136.73-12.71,23.64-24.19,39.67-37.21,52C584.1,684.16,571.1,692.55,553.77,700.31Z" transform="translate(-9.25 -83.65)" fill="#fcc781"/><path d="M575.48,555a23.48,23.48,0,1,0-31.69,22l-8,32a2.22,2.22,0,0,0,2.16,2.77h28.18a2.23,2.23,0,0,0,2.17-2.77l-8-32A23.46,23.46,0,0,0,575.48,555Z" transform="translate(-9.25 -83.65)" fill="#f89516"/></g></g></svg>