<svg id="Layer_1" data-name="Layer 1" xmlns="http://www.w3.org/2000/svg" viewBox="0 0 1059 1007.94"><path d="M832.49,36H208.69C187.74,36,169.9,53.88,169.9,75.6v70.61c0,21.72,17.84,39.57,38.79,39.57h623.8c21.73,0,38.8-17.85,39.57-39.57V76.38c0-22.5-17.84-40.35-39.57-40.35Zm0,391.82H208.69a36.41,36.41,0,0,0-27.16,11.64,38.12,38.12,0,0,0-11.63,27.93V538c0,21.73,17.84,39.57,38.79,39.57h623.8c21.73,0,38.8-17.07,39.57-39.57v-70.6C871.29,444.92,854.22,427.85,832.49,427.85ZM560.16,623.37H208.69A36.41,36.41,0,0,0,181.53,635c-7,7.76-11.63,17.07-11.63,27.93v70.6c0,21.73,17.84,39.57,38.79,39.57H559.38a38.9,38.9,0,0,0,38.8-38.79V663.71C599,640.44,581.88,622.59,560.16,623.37Zm311.9-391.82H208.69a36.41,36.41,0,0,0-27.16,11.64c-7,7.76-11.63,17.07-11.63,27.93v70.61c0,21.72,17.84,39.57,38.79,39.57h662.6c21.72,0,38.79-17.85,38.79-39.57V271.12C910.86,249.4,893,232.33,872.06,231.55Z" transform="translate(-10.5 -36.03)" fill="#00c3f7"/><path d="M127.8,871.25a59.14,59.14,0,0,0-19.69-13.58,60,60,0,0,0-23.55-4.75,50.15,50.15,0,0,0-22.86,5A42.52,42.52,0,0,0,49,867.18v-3.62a7.86,7.86,0,0,0-1.82-5,6.48,6.48,0,0,0-5-2.27H17.11a5.7,5.7,0,0,0-4.76,2.27,6,6,0,0,0-1.81,5v169.32a7.93,7.93,0,0,0,1.81,5,6.56,6.56,0,0,0,4.76,2h25.8a6.56,6.56,0,0,0,4.76-2,5.67,5.67,0,0,0,2-5v-58a32.38,32.38,0,0,0,13.59,8.83,60.78,60.78,0,0,0,44.82-.91A60.06,60.06,0,0,0,128,969.27,65.81,65.81,0,0,0,141.61,948a69.13,69.13,0,0,0,5-27.84,75.21,75.21,0,0,0-5-28.07,74.18,74.18,0,0,0-13.81-20.83ZM104.71,932.6a29.36,29.36,0,0,1-6.11,9.73,27.75,27.75,0,0,1-20.37,8.83,25,25,0,0,1-11.32-2.49,32.09,32.09,0,0,1-9.28-6.34,27.16,27.16,0,0,1-6.11-9.73,33,33,0,0,1,0-23.77,29.73,29.73,0,0,1,6.11-9.51,32.84,32.84,0,0,1,9.28-6.56,28.25,28.25,0,0,1,11.32-2.49,25.92,25.92,0,0,1,11.54,2.49,28.27,28.27,0,0,1,9.06,6.34,29.92,29.92,0,0,1,6.11,9.5A36.37,36.37,0,0,1,104.71,932.6ZM284.9,856.54H259.32a6.19,6.19,0,0,0-4.76,2,7.18,7.18,0,0,0-2,5.2V867A33.56,33.56,0,0,0,241,858.12a51.47,51.47,0,0,0-22.41-5,62.6,62.6,0,0,0-43.91,18.11,63.43,63.43,0,0,0-14,21.28,69.52,69.52,0,0,0-5.2,28.07,71,71,0,0,0,5.2,28.07,67.09,67.09,0,0,0,14,21.28,61.32,61.32,0,0,0,43.69,18.33,48.31,48.31,0,0,0,22.41-5,41,41,0,0,0,11.77-8.83v3.4a7.05,7.05,0,0,0,2,5,7.58,7.58,0,0,0,4.76,2H284.9a6.15,6.15,0,0,0,4.75-2,7,7,0,0,0,2-5V864a7.93,7.93,0,0,0-1.81-5,6.66,6.66,0,0,0-5-2.49ZM250.26,932.6a29.36,29.36,0,0,1-6.11,9.73,32.11,32.11,0,0,1-9.05,6.57,27,27,0,0,1-22.87,0,33.16,33.16,0,0,1-9.28-6.57,27.43,27.43,0,0,1-6.11-9.73,35.64,35.64,0,0,1,0-23.77,28.61,28.61,0,0,1,6.11-9.51,30.12,30.12,0,0,1,9.28-6.56,26.4,26.4,0,0,1,22.64,0,28.23,28.23,0,0,1,9,6.34,34.29,34.29,0,0,1,6.12,9.5A32.53,32.53,0,0,1,250.26,932.6Zm289.52-15.4a44.18,44.18,0,0,0-12.45-7.69A86.83,86.83,0,0,0,512.39,905l-19.47-3.85c-5-.9-8.6-2.26-10.41-3.85a6.23,6.23,0,0,1-2.72-5c0-2,1.14-3.84,3.63-5.43a20.27,20.27,0,0,1,10.86-2.49,39.45,39.45,0,0,1,14.49,2.94,87,87,0,0,1,12.9,6.8c5.66,3.62,10.64,2.94,14-1.14L545,882.34a10.34,10.34,0,0,0,2.94-6.56,10.12,10.12,0,0,0-3.62-6.79c-3.85-3.4-10.19-7-18.56-10.64s-19-5.43-31.47-5.43a67.78,67.78,0,0,0-22.41,3.17,61.86,61.86,0,0,0-17.2,8.82A38.21,38.21,0,0,0,439.73,895c0,10.64,3.17,19.24,9.51,25.58s14.71,10.64,25.12,12.68l20.37,4.52a45,45,0,0,1,12.91,4.08,6,6,0,0,1,3.62,5.66c0,2.26-1.13,4.3-3.62,6.11s-6.57,2.94-12,2.94A36.25,36.25,0,0,1,479.57,953a62.3,62.3,0,0,1-13.13-8.6,25,25,0,0,0-5.89-3.4c-2.26-.68-5.2,0-8.15,2.49l-11.09,8.38a9.32,9.32,0,0,0-3.85,9.73c.68,3.85,3.63,7.47,9.29,11.77a81.47,81.47,0,0,0,47.76,14,80.63,80.63,0,0,0,23.31-3.17,59,59,0,0,0,18.11-9.06,37.22,37.22,0,0,0,11.77-14,38.63,38.63,0,0,0,4.08-17.43,35,35,0,0,0-3.17-15.85,48,48,0,0,0-8.83-10.64Zm111.82,31a7.88,7.88,0,0,0-5.65-3.85,11.26,11.26,0,0,0-6.57,2A21.93,21.93,0,0,1,629,949.8a20.36,20.36,0,0,1-3.62-.45,6.31,6.31,0,0,1-3.4-1.81,14.9,14.9,0,0,1-2.72-3.85,14.5,14.5,0,0,1-1.13-6.79V890.49h33a7.36,7.36,0,0,0,5.21-2.26,6.85,6.85,0,0,0,2.26-5V863.56a5.83,5.83,0,0,0-2.26-5,7,7,0,0,0-5-2H618.1V824.85a6.68,6.68,0,0,0-2-5,9.09,9.09,0,0,0-4.76-2h-25.8a7,7,0,0,0-5,2,7.27,7.27,0,0,0-2.27,5v31.69H563.55a6.43,6.43,0,0,0-5,2.26,7.93,7.93,0,0,0-1.81,5v19.7a7.93,7.93,0,0,0,1.81,5,5.83,5.83,0,0,0,5,2.26h14.71V946a42.18,42.18,0,0,0,3.85,19,39.53,39.53,0,0,0,10,12.9,36,36,0,0,0,14,7.24,55.12,55.12,0,0,0,16.07,2.49,67.29,67.29,0,0,0,21.05-3.39,39.56,39.56,0,0,0,16.52-10.41,8.89,8.89,0,0,0,.91-11.1Zm139.9-91.68H765.92a6.53,6.53,0,0,0-4.76,2,7.18,7.18,0,0,0-2,5.2V867a31.55,31.55,0,0,0-11.55-8.83,51.44,51.44,0,0,0-22.41-5,62.6,62.6,0,0,0-43.91,18.11,63.43,63.43,0,0,0-14,21.28,69.16,69.16,0,0,0-5.2,27.84,70.93,70.93,0,0,0,5.2,28.07,66.81,66.81,0,0,0,14,21.28A60.94,60.94,0,0,0,725,988.06a51.28,51.28,0,0,0,22.41-4.76,38.21,38.21,0,0,0,11.77-8.83v3.4a6.18,6.18,0,0,0,2,4.75,6.53,6.53,0,0,0,4.76,2H791.5a6.67,6.67,0,0,0,6.79-6.79V864a7.93,7.93,0,0,0-1.81-5,6,6,0,0,0-5-2.49ZM757.09,932.6a29.52,29.52,0,0,1-6.11,9.73,32,32,0,0,1-9.06,6.57,28.64,28.64,0,0,1-11.54,2.49,27.58,27.58,0,0,1-11.32-2.49,33,33,0,0,1-9.28-6.57,24.06,24.06,0,0,1-5.89-9.73,35.76,35.76,0,0,1,0-23.77,29.34,29.34,0,0,1,5.89-9.51,33,33,0,0,1,9.28-6.56,28.25,28.25,0,0,1,11.32-2.49,26.57,26.57,0,0,1,11.54,2.49A31,31,0,0,1,751,899.1a26.43,26.43,0,0,1,6.11,9.5A33.76,33.76,0,0,1,757.09,932.6Zm174.75,13.81-14.71-11.32c-2.72-2.27-5.43-3-7.7-2A18.15,18.15,0,0,0,904,936.9a59.3,59.3,0,0,1-11.09,10.18,24.72,24.72,0,0,1-14.26,3.4,27,27,0,0,1-16.08-5,26.59,26.59,0,0,1-10.18-13.58,34.48,34.48,0,0,1-2-11.55,37,37,0,0,1,2-12,25.92,25.92,0,0,1,5.88-9.51,27.37,27.37,0,0,1,9.06-6.34A28.64,28.64,0,0,1,878.87,890a26.26,26.26,0,0,1,14.26,3.62,43.18,43.18,0,0,1,11.1,10.19,14.88,14.88,0,0,0,5.2,3.85c2.27.9,5,.22,7.7-2l14.71-11.09a9.38,9.38,0,0,0,3.85-5,7.23,7.23,0,0,0-.68-6.79,63.76,63.76,0,0,0-22.64-21.28c-9.73-5.43-21.27-8.38-34.18-8.38a73,73,0,0,0-26.71,5.21A66.16,66.16,0,0,0,830,872.61a66.82,66.82,0,0,0-14.49,21.51,69.22,69.22,0,0,0,0,53A62.32,62.32,0,0,0,830,968.36a68.3,68.3,0,0,0,48.21,19.47c12.91,0,24.45-2.94,34.18-8.38A63.06,63.06,0,0,0,935.24,958a8.39,8.39,0,0,0,.68-6.56,14.08,14.08,0,0,0-4.08-5Zm136.27,26.48-40.52-59.31,34.64-45.72a8.1,8.1,0,0,0,1.36-7.47c-.68-1.81-2.27-3.62-6.57-3.62h-27.39a10.32,10.32,0,0,0-4.53,1.13,9.49,9.49,0,0,0-4.07,3.85l-27.62,38.7h-6.56V809a7,7,0,0,0-2-5,6.54,6.54,0,0,0-4.75-2H954.48a7.05,7.05,0,0,0-5,2,6.67,6.67,0,0,0-2,5V977.64a6.63,6.63,0,0,0,2,5,7,7,0,0,0,5,2h25.58a6.15,6.15,0,0,0,4.75-2,7,7,0,0,0,2-5V933.05h7.24l30.11,46.18a10,10,0,0,0,8.83,5.43h28.74c4.31,0,6.12-2,7-3.85a8.18,8.18,0,0,0-.68-7.92ZM430.22,856.54H401.47a8,8,0,0,0-5.88,2.26,10.08,10.08,0,0,0-2.72,4.76l-21.28,78.77h-5.2l-22.64-78.77a15.16,15.16,0,0,0-2.26-4.76,6.79,6.79,0,0,0-5.21-2.49h-29.2c-3.85,0-6.11,1.14-7.24,3.85a12.33,12.33,0,0,0,0,7L336.05,978.1c.68,1.58,1.36,3.39,2.72,4.52a7.71,7.71,0,0,0,5.43,2h15.4l-1.36,3.62-3.4,10.19a16.56,16.56,0,0,1-5.66,7.92,13.07,13.07,0,0,1-8.6,2.72,22.15,22.15,0,0,1-7.7-1.59,34,34,0,0,1-6.79-4.07,10.76,10.76,0,0,0-6.56-2h-.23a8.05,8.05,0,0,0-6.56,4.08l-9.06,13.35c-3.62,5.89-1.58,9.51.68,11.55a46.22,46.22,0,0,0,17,10,64,64,0,0,0,21.5,3.62c13.13,0,24-3.62,32.37-10.64a61.24,61.24,0,0,0,18.34-29l42.1-137.17a10,10,0,0,0,.23-7.24c-.23-1.59-1.81-3.4-5.66-3.4Z" transform="translate(-10.5 -36.03)" fill="#011b33"/></svg>